<svg id="svg" version="1.1" xmlns="http://www.w3.org/2000/svg" style="display: block;" viewBox="0 0 1207 1208"><path d="M0 0 C398.31 0 796.62 0 1207 0 C1207 398.64 1207 797.28 1207 1208 C808.69 1208 410.38 1208 0 1208 C0 809.36 0 410.72 0 0 Z " transform="translate(0,0)" style="fill: #002C51;"/><path d="M0 0 C3.63 0 7.26 0 11 0 C11 6.6 11 13.2 11 20 C14.3 20 17.6 20 21 20 C21.66 21.32 22.32 22.64 23 24 C24.3516367 26.24755753 24.3516367 26.24755753 26 28 C26.99 28 27.98 28 29 28 C28.67 28.66 28.34 29.32 28 30 C27.01 30 26.02 30 25 30 C25.495 31.485 25.495 31.485 26 33 C26.66 32.34 27.32 31.68 28 31 C28 31.66 28 32.32 28 33 C28.66 33 29.32 33 30 33 C30.33 31.35 30.66 29.7 31 28 C34.75 26.875 34.75 26.875 37 28 C37.495 26.515 37.495 26.515 38 25 C44.47751016 19.88996421 51.49198363 19.28334516 59.5 19.58203125 C65.69488047 20.32182166 69.71876695 22.31548222 73.875 26.9375 C77.89422041 32.72990588 78.32066137 37.37223941 78.4140625 44.23828125 C78.43342865 45.11904831 78.4527948 45.99981537 78.4727478 46.90727234 C78.53232851 49.70891766 78.57884265 52.51060456 78.625 55.3125 C78.66319959 57.21681438 78.70225247 59.12111185 78.7421875 61.02539062 C78.83801233 65.68345572 78.9221226 70.34160168 79 75 C79.66 75.33 80.32 75.66 81 76 C81 78.31 81 80.62 81 83 C73.63803681 83.49079755 73.63803681 83.49079755 70.5625 81.125 C69 79 69 79 68 77 C67.319375 77.598125 66.63875 78.19625 65.9375 78.8125 C58.5431608 84.31892281 52.09391944 84.84485445 43 84 C37.69100262 82.29353656 35.26721548 79.32425578 32 75 C30.68 76.32 29.36 77.64 28 79 C27.875 74.25 27.875 74.25 29 72 C26.76429774 73.76429774 26.76429774 73.76429774 27 76 C26.34 76 25.68 76 25 76 C25.20625 76.598125 25.4125 77.19625 25.625 77.8125 C26 80 26 80 24 83 C23.01 82.505 23.01 82.505 22 82 C22.33 82.99 22.66 83.98 23 85 C22.35933594 85.12117187 21.71867188 85.24234375 21.05859375 85.3671875 C15.95071067 86.35679227 10.97749731 87.48510951 6 89 C5.34 88.34 4.68 87.68 4 87 C4.495 86.505 4.495 86.505 5 86 C4.01 85.67 3.02 85.34 2 85 C-2.1783664 80.33883274 -1.38005861 74.67630676 -1.29296875 68.79296875 C-1.28872391 67.71243729 -1.28447906 66.63190582 -1.28010559 65.51863098 C-1.26334129 62.07466494 -1.22569226 58.63128856 -1.1875 55.1875 C-1.1724503 52.84961784 -1.15876239 50.51172649 -1.14648438 48.17382812 C-1.11344511 42.44901828 -1.06326766 36.72455128 -1 31 C-4.96 31.495 -4.96 31.495 -9 32 C-10.42166892 27.73499324 -9.57997373 24.44646526 -9 20 C-6.03 20 -3.06 20 0 20 C0 13.4 0 6.8 0 0 Z " transform="translate(686,565)" style="fill: #042C50;"/><path d="M0 0 C1.02867187 -0.01417969 2.05734375 -0.02835938 3.1171875 -0.04296875 C8.75563368 0.38906804 12.55719523 3.00065946 17.125 6.1875 C17.455 4.5375 17.785 2.8875 18.125 1.1875 C20.765 1.1875 23.405 1.1875 26.125 1.1875 C26.21806696 9.88081939 26.28894962 18.5739648 26.33224869 27.2676754 C26.35304004 31.30542085 26.38120073 35.3428231 26.42675781 39.38037109 C26.47052046 43.28373162 26.49420052 47.186764 26.50450897 51.0903511 C26.51184625 52.57257877 26.52617301 54.0547904 26.54792023 55.53687668 C26.68302088 65.13397818 26.33712168 73.76819292 20.23046875 81.625 C19.59753906 82.140625 18.96460938 82.65625 18.3125 83.1875 C17.68730469 83.72375 17.06210937 84.26 16.41796875 84.8125 C11.06095874 88.02488079 5.37458958 88.54724852 -0.75 88.5 C-1.44673828 88.49871094 -2.14347656 88.49742187 -2.86132812 88.49609375 C-8.43564312 88.39238556 -12.78294676 87.36980853 -17.875 85.1875 C-17.875 82.5475 -17.875 79.9075 -17.875 77.1875 C-11.875 78.1875 -11.875 78.1875 -9.1875 78.75 C-2.46819909 79.63745484 4.91472539 80.29263731 11.125 77.1875 C15.22810756 72.94290598 15.24934708 68.62743141 15.1875 62.9375 C15.17847656 61.85984375 15.16945313 60.7821875 15.16015625 59.671875 C15.14855469 58.85203125 15.13695312 58.0321875 15.125 57.1875 C14.31095703 57.81978516 14.31095703 57.81978516 13.48046875 58.46484375 C12.76503906 59.01269531 12.04960937 59.56054688 11.3125 60.125 C10.60480469 60.67027344 9.89710938 61.21554687 9.16796875 61.77734375 C4.81400786 64.78265901 0.22009777 64.86945924 -4.875 64.1875 C-11.69289387 61.90463163 -17.08541666 58.35299767 -20.875 52.1875 C-26.3151915 41.00974319 -27.72363033 29.16101657 -23.875 17.1875 C-20.57021952 9.61451152 -16.21191687 4.97474661 -8.875 1.1875 C-5.69954097 0.12901366 -3.33491204 0.02079122 0 0 Z " transform="translate(437.875,584.8125)" style="fill: #F3F5F4;"/><path d="M0 0 C5.61 0 11.22 0 17 0 C23.37111284 20.98876005 29.7109051 41.98650991 36 63 C37.76415911 60.35376133 38.55102019 58.62922084 39.44873047 55.65893555 C39.84957352 54.34562508 39.84957352 54.34562508 40.2585144 53.00578308 C40.54187653 52.05899185 40.82523865 51.11220062 41.1171875 50.13671875 C41.41561554 49.15314896 41.71404358 48.16957916 42.02151489 47.15620422 C42.97733109 44.00135599 43.92611314 40.8444384 44.875 37.6875 C45.50607904 35.60338495 46.13758486 33.51939909 46.76953125 31.43554688 C49.93394974 20.98089791 53.03852732 10.51397212 56 0 C61.61 0 67.22 0 73 0 C73 27.72 73 55.44 73 84 C69.7 84 66.4 84 63 84 C62.67 60.57 62.34 37.14 62 13 C58.26565852 25.69670151 58.26565852 25.69670151 54.53515625 38.39453125 C50.06684967 53.60953301 45.58745335 68.82037793 41 84 C38.03 84 35.06 84 32 84 C31.82460693 83.39341553 31.64921387 82.78683105 31.46850586 82.16186523 C28.21390053 70.91992917 24.92497096 59.69134502 21.5 48.5 C17.90703997 36.6945599 14.45522471 24.84648471 11 13 C10.67 36.43 10.34 59.86 10 84 C6.7 84 3.4 84 0 84 C0 56.28 0 28.56 0 0 Z " transform="translate(228,564)" style="fill: #F2F5F5;"/><path d="M0 0 C8.43621757 5.20532574 12.36965721 11.24735838 15.58984375 20.734375 C17.65895191 33.10252716 15.68669369 43.69874664 8.46875 53.87109375 C4.60040396 58.77560391 -0.04635376 61.40771458 -6.0625 62.8125 C-14.49978366 63.71085826 -20.83886804 62.43791219 -27.6875 57.25 C-33.72133695 51.81276715 -37.4960235 42.82515836 -38.3984375 34.83984375 C-38.53866767 23.7476373 -36.49949316 13.33783362 -29.0625 4.8125 C-21.58478011 -2.1043909 -9.57023881 -3.78508322 0 0 Z " transform="translate(351.0625,586.1875)" style="fill: #F2F5F4;"/><path d="M0 0 C5.14789281 3.16707318 8.58412054 7.58768831 10.375 13.375 C10.69902197 16.45235824 10.7469935 19.52073262 10.7890625 22.61328125 C10.80842865 23.49404831 10.8277948 24.37481537 10.8477478 25.28227234 C10.90732851 28.08391766 10.95384265 30.88560456 11 33.6875 C11.03819959 35.59181438 11.07725247 37.49611185 11.1171875 39.40039062 C11.21301233 44.05845572 11.2971226 48.71660168 11.375 53.375 C12.365 53.87 12.365 53.87 13.375 54.375 C13.375 56.685 13.375 58.995 13.375 61.375 C6.01303681 61.86579755 6.01303681 61.86579755 2.9375 59.5 C1.375 57.375 1.375 57.375 0.375 55.375 C-0.305625 55.973125 -0.98625 56.57125 -1.6875 57.1875 C-9.09351062 62.70261429 -15.52085919 63.19837191 -24.625 62.375 C-30.5035348 60.66488079 -33.49913246 56.42526157 -36.625 51.375 C-38.32262422 46.28212735 -38.25997195 41.35928733 -36.625 36.25 C-30.55127478 27.51902 -22.25373731 23.15891506 -12 21.125 C-7.81238441 20.45356796 -3.85786186 20.18687281 0.375 20.375 C0.11837755 18.93489519 -0.15590821 17.4979313 -0.4375 16.0625 C-0.58832031 15.26199219 -0.73914063 14.46148438 -0.89453125 13.63671875 C-1.71240771 11.10436328 -2.58514607 10.04490561 -4.625 8.375 C-8.57150367 6.40174816 -13.32366713 6.93150099 -17.625 7.375 C-21.66399214 9.39449607 -24.18795579 11.58404234 -26.625 15.375 C-32.375 13.5 -32.375 13.5 -34.625 12.375 C-34.11896008 10.20625748 -33.62516187 8.37532373 -32.625 6.375 C-31.965 6.375 -31.305 6.375 -30.625 6.375 C-30.295 5.385 -29.965 4.395 -29.625 3.375 C-21.58743625 -2.96574473 -9.32301959 -4.18476447 0 0 Z " transform="translate(753.625,586.625)" style="fill: #F3F5F4;"/><path d="M0 0 C4.16167697 2.53420553 6.54455309 5.61803428 8.09765625 10.27734375 C8.18354928 11.67389834 8.2153834 13.07420152 8.21118164 14.47338867 C8.21110611 15.31403366 8.21103058 16.15467865 8.21095276 17.02079773 C8.20579147 17.9240126 8.20063019 18.82722748 8.1953125 19.7578125 C8.19389755 20.68580154 8.1924826 21.61379059 8.19102478 22.56990051 C8.18542562 25.53491433 8.17287329 28.49985274 8.16015625 31.46484375 C8.15514114 33.47460828 8.15057825 35.484374 8.14648438 37.49414062 C8.13545646 42.42190407 8.11819242 47.34961112 8.09765625 52.27734375 C9.41765625 52.60734375 10.73765625 52.93734375 12.09765625 53.27734375 C12.09765625 55.58734375 12.09765625 57.89734375 12.09765625 60.27734375 C4.865787 60.76763997 4.865787 60.76763997 1.16015625 58.40234375 C-0.90234375 56.27734375 -0.90234375 56.27734375 -1.90234375 54.27734375 C-2.76859375 55.06109375 -3.63484375 55.84484375 -4.52734375 56.65234375 C-10.03567104 61.63606845 -16.69749644 61.72693107 -23.7734375 61.58203125 C-28.38626114 61.13284243 -30.32004057 60.2625964 -33.90234375 57.27734375 C-38.29688109 51.5598436 -40.50380901 46.61521995 -39.90234375 39.27734375 C-37.28751335 31.40296877 -32.09933345 27.13179849 -24.90234375 23.27734375 C-22.2675737 22.45500946 -19.70285063 21.7324655 -17.02734375 21.08984375 C-16.34542969 20.91259766 -15.66351563 20.73535156 -14.9609375 20.55273438 C-10.49392256 19.45087069 -6.50064097 19.10325678 -1.90234375 19.27734375 C-2.13152343 17.67007048 -2.38655177 16.06646959 -2.65234375 14.46484375 C-2.7915625 13.57152344 -2.93078125 12.67820312 -3.07421875 11.7578125 C-4.11092068 8.65259682 -5.02239309 7.79854846 -7.90234375 6.27734375 C-13.59058777 5.31459441 -19.21624089 5.24303349 -24.08984375 8.58984375 C-27.07836747 11.02638028 -27.07836747 11.02638028 -27.90234375 14.27734375 C-31.2460785 13.72005462 -33.93547374 12.92560486 -36.90234375 11.27734375 C-35.5652359 5.76177388 -31.42795869 2.37504915 -26.90234375 -0.72265625 C-18.18818789 -4.31014161 -8.53429186 -3.89940815 0 0 Z " transform="translate(514.90234375,587.72265625)" style="fill: #F2F5F3;"/><path d="M0 0 C0.70108887 0.00829834 1.40217773 0.01659668 2.12451172 0.02514648 C9.77485818 0.27390225 15.18754253 2.08044488 20.5 7.625 C26.9196799 16.07757853 26.125 23.51329801 26.125 34.4375 C12.265 34.4375 -1.595 34.4375 -15.875 34.4375 C-14.00287194 45.82582621 -14.00287194 45.82582621 -7.875 53.4375 C-3.83134594 55.84183484 0.5242292 56.12254124 5.125 55.4375 C9.48071538 53.99855831 12.40572218 52.42650701 15.125 48.6875 C15.455 47.945 15.785 47.2025 16.125 46.4375 C19.85987777 46.9354837 21.93737635 47.31241756 25.125 49.4375 C23.13624339 55.76536193 18.88364105 59.41421345 13.125 62.4375 C6.68730478 65.44545759 -0.6765393 65.58818923 -7.51171875 63.71484375 C-15.5883832 60.32785543 -20.1566146 55.6906784 -23.89453125 47.83984375 C-27.61229966 38.73057055 -27.68278517 24.87656811 -24.3125 15.6875 C-19.11613767 5.34966648 -11.87500347 -0.18165809 0 0 Z " transform="translate(895.875,584.5625)" style="fill: #F1F3F3;"/><path d="M0 0 C6.63149689 3.94094007 11.59980905 9.82231113 14.4375 17 C14.4375 17.99 14.4375 18.98 14.4375 20 C11.28199453 20.56799098 8.56908156 20.77132551 5.4375 20 C3.52193491 17.88896908 2.30693673 15.7997467 1.01953125 13.26171875 C-1.13026046 10.18831283 -3.06341676 9.3100833 -6.5625 8 C-10.27521994 7.49176542 -10.27521994 7.49176542 -14.125 7.5625 C-15.40503906 7.54316406 -16.68507813 7.52382813 -18.00390625 7.50390625 C-22.07302435 8.07117079 -23.68980273 9.12730273 -26.5625 12 C-28.30298397 15.48096794 -27.99933562 19.19423515 -27.5625 23 C-24.42674747 29.57014816 -16.26748362 31.65945037 -9.8203125 33.9921875 C-8.93085937 34.30414062 -8.04140625 34.61609375 -7.125 34.9375 C11.26268733 41.5233479 11.26268733 41.5233479 16.4375 50 C19.44808654 56.43170761 19.19170018 62.48941186 16.9375 69.0625 C14.01185639 75.7350205 9.16277721 80.15994765 2.4375 82.9375 C-5.46893314 85.15130128 -17.2021421 85.75174271 -24.76953125 82.16015625 C-32.33905941 77.26222627 -37.69656636 71.15636195 -41.5625 63 C-41.5625 62.34 -41.5625 61.68 -41.5625 61 C-38.05473216 59.39644899 -35.41895121 58.77963136 -31.5625 59 C-28.5625 64.75 -28.5625 64.75 -28.5625 67 C-27.9025 67 -27.2425 67 -26.5625 67 C-24.89583333 68.66666667 -23.22916667 70.33333333 -21.5625 72 C-18.03258308 74.32942716 -14.85354189 74.29906116 -10.6875 74.3125 C-8.89699219 74.33763672 -8.89699219 74.33763672 -7.0703125 74.36328125 C-1.87424309 73.82515825 1.33576927 72.18647925 4.875 68.375 C6.89109801 64.02022831 6.95883242 60.55607366 5.4375 56 C2.52845836 51.34553337 -0.98620342 49.53450638 -5.9375 47.5625 C-6.64068359 47.26666016 -7.34386719 46.97082031 -8.06835938 46.66601562 C-11.51026667 45.22183709 -14.97384751 43.83609922 -18.4453125 42.46484375 C-26.98984839 39.00458354 -33.75634464 35.73538717 -38.5625 27.625 C-40.45061791 20.78057258 -40.44143461 15.12799358 -36.890625 8.8515625 C-28.66474115 -2.61628733 -12.67142994 -5.75267371 0 0 Z " transform="translate(653.5625,565)" style="fill: #F2F4F3;"/><path d="M0 0 C1.40378906 -0.02126953 1.40378906 -0.02126953 2.8359375 -0.04296875 C8.12340709 0.39395101 11.81103443 2.57426946 15.625 6.1875 C19.45080527 11.83596313 19.01164392 17.36803871 18.91796875 23.9296875 C18.91372391 25.05319611 18.90947906 26.17670471 18.90510559 27.33425903 C18.8883589 30.91058663 18.85071296 34.48634369 18.8125 38.0625 C18.79744803 40.49217934 18.78376052 42.92186755 18.77148438 45.3515625 C18.73846832 51.29709369 18.68671263 57.24220022 18.625 63.1875 C15.325 63.1875 12.025 63.1875 8.625 63.1875 C8.595271 61.04568237 8.595271 61.04568237 8.56494141 58.8605957 C8.48881657 53.55833428 8.40010934 48.2563448 8.30761719 42.9543457 C8.26935595 40.66045504 8.23449811 38.36650497 8.203125 36.07250977 C8.15741294 32.7733844 8.09942778 29.47466704 8.0390625 26.17578125 C8.02751129 25.15164627 8.01596008 24.12751129 8.00405884 23.07234192 C7.98418915 22.11172348 7.96431946 21.15110504 7.94384766 20.16137695 C7.93052399 19.31976517 7.91720032 18.47815338 7.9034729 17.61103821 C7.58424057 14.83277239 6.85536647 12.69442561 5.625 10.1875 C2.10907073 8.42953536 -1.53790878 8.63934411 -5.375 9.1875 C-8.58349618 10.55673085 -11.43125479 12.33006995 -14.375 14.1875 C-16.355 15.1775 -16.355 15.1775 -18.375 16.1875 C-18.375 31.6975 -18.375 47.2075 -18.375 63.1875 C-21.675 63.1875 -24.975 63.1875 -28.375 63.1875 C-28.375 42.7275 -28.375 22.2675 -28.375 1.1875 C-25.075 1.1875 -21.775 1.1875 -18.375 1.1875 C-18.375 3.4975 -18.375 5.8075 -18.375 8.1875 C-17.68792969 7.69378906 -17.00085938 7.20007813 -16.29296875 6.69140625 C-15.39191406 6.05074219 -14.49085938 5.41007813 -13.5625 4.75 C-12.66917969 4.11191406 -11.77585937 3.47382812 -10.85546875 2.81640625 C-7.16080893 0.39014933 -4.32882382 0.02964948 0 0 Z " transform="translate(567.375,584.8125)" style="fill: #F5F7F6;"/><path d="M0 0 C5.02103624 1.96186184 8.77100825 5.04464466 11.01904297 9.96533203 C12.24990387 14.94026172 12.1404729 19.7035459 12.08984375 24.80859375 C12.08701385 25.88771027 12.08418396 26.96682678 12.08126831 28.0786438 C12.07010785 31.51217924 12.04501055 34.94545016 12.01953125 38.37890625 C12.00949612 40.71223581 12.0003712 43.04556947 11.9921875 45.37890625 C11.970182 51.08734091 11.93568033 56.79557879 11.89453125 62.50390625 C8.59453125 62.50390625 5.29453125 62.50390625 1.89453125 62.50390625 C1.87994873 61.07602783 1.86536621 59.64814941 1.8503418 58.17700195 C1.79232899 52.87466506 1.71509559 47.5727515 1.63208008 42.27075195 C1.59884491 39.97687658 1.57080861 37.68291971 1.5480957 35.38891602 C1.51452451 32.08965352 1.4622059 28.79113695 1.40625 25.4921875 C1.39986008 24.46805252 1.39347015 23.44391754 1.3868866 22.38874817 C1.29351961 15.43827563 1.29351961 15.43827563 -2.10546875 9.50390625 C-5.64461294 7.73433416 -9.25141948 7.84662653 -13.10546875 8.50390625 C-15.65773775 9.84214463 -17.86556535 11.35430206 -20.16015625 13.09375 C-22.10546875 14.50390625 -22.10546875 14.50390625 -25.10546875 15.50390625 C-25.10546875 31.01390625 -25.10546875 46.52390625 -25.10546875 62.50390625 C-28.40546875 62.50390625 -31.70546875 62.50390625 -35.10546875 62.50390625 C-35.10546875 42.04390625 -35.10546875 21.58390625 -35.10546875 0.50390625 C-31.80546875 0.50390625 -28.50546875 0.50390625 -25.10546875 0.50390625 C-24.77546875 2.48390625 -24.44546875 4.46390625 -24.10546875 6.50390625 C-23.47898437 6.08238281 -22.8525 5.66085937 -22.20703125 5.2265625 C-21.38976562 4.67871094 -20.5725 4.13085938 -19.73046875 3.56640625 C-18.91835938 3.02113281 -18.10625 2.47585938 -17.26953125 1.9140625 C-12.07967397 -1.4677759 -5.98947968 -1.41125031 0 0 Z " transform="translate(815.10546875,585.49609375)" style="fill: #F1F4F3;"/><path d="M0 0 C3.3 0 6.6 0 10 0 C15.56989327 14.5813466 20.77601614 29.29223773 26 44 C28.23632124 38.23055584 30.13590503 32.43638965 31.875 26.5 C32.39506819 24.7445648 32.91591364 22.98935971 33.4375 21.234375 C33.69660156 20.36232422 33.95570313 19.49027344 34.22265625 18.59179688 C36.08703112 12.37565252 38.04660564 6.18862992 40 0 C43.3 0 46.6 0 50 0 C48.56396766 6.39687132 46.53365914 12.52893923 44.4140625 18.73046875 C42.87784446 23.29286144 41.48414929 27.89777388 40.07519531 32.50073242 C38.2730223 38.36597896 36.42357092 44.21571587 34.5625 50.0625 C34.00852539 51.8269043 34.00852539 51.8269043 33.44335938 53.62695312 C25.23949386 79.34756442 25.23949386 79.34756442 16 86 C12.36277681 86.99307769 8.94470005 87.10776747 5.1875 87.0625 C3.72376953 87.04896484 3.72376953 87.04896484 2.23046875 87.03515625 C1.49441406 87.02355469 0.75835938 87.01195312 0 87 C0 84.36 0 81.72 0 79 C0.81984375 78.90203125 1.6396875 78.8040625 2.484375 78.703125 C3.56203125 78.55359375 4.6396875 78.4040625 5.75 78.25 C7.35101562 78.04117188 7.35101562 78.04117188 8.984375 77.828125 C13.15838428 76.68189447 14.91182859 74.62889856 17.265625 71.10546875 C17.59046875 70.47253906 17.9153125 69.83960938 18.25 69.1875 C18.75273438 68.24970703 18.75273438 68.24970703 19.265625 67.29296875 C21.19525773 61.26799846 19.59067556 55.90392647 17.40234375 50.21484375 C17.13234558 49.48421219 16.86234741 48.75358063 16.58416748 48.00080872 C16.00823745 46.44477766 15.42743526 44.8905425 14.84213257 43.3380127 C13.32447717 39.31079638 11.84277916 35.27040071 10.359375 31.23046875 C10.06669235 30.43573151 9.7740097 29.64099426 9.47245789 28.82217407 C5.98830103 19.3175815 2.93401533 9.68758517 0 0 Z " transform="translate(928,586)" style="fill: #F2F4F4;"/><path d="M0 0 C2.68073287 1.78715525 4.59663167 3.24341788 6.625 5.75 C7.14257812 8.84692383 7.14257812 8.84692383 7.15625 12.45703125 C7.16140625 13.76607422 7.1665625 15.07511719 7.171875 16.42382812 C7.16349609 17.10388916 7.15511719 17.7839502 7.14648438 18.48461914 C7.12516753 20.54629699 7.14623792 22.60444935 7.171875 24.66601562 C7.12248645 37.24157411 7.12248645 37.24157411 2.625 42.75 C-0.85794363 45.6153495 -4.5681373 46.65262002 -9 47.1875 C-14.22755453 46.50985404 -17.22104942 45.12832986 -20.625 41.0625 C-25.32570387 32.16473911 -25.83381192 20.93757697 -23.83984375 11.11328125 C-22.23277779 6.50284612 -19.78525533 2.2209267 -15.55078125 -0.36328125 C-10.53057352 -2.40921869 -4.98061199 -1.84467111 0 0 Z " transform="translate(447.375,594.25)" style="fill: #032C51;"/><path d="M0 0 C5.17926684 1.8415171 7.63027646 6.2514386 10 11 C12.36803859 19.10001985 12.57478592 30.59108944 9.25 38.375 C6.88437552 42.60169269 4.6380996 45.28778278 0.125 47.25 C-4.7583425 48.4220022 -7.61595277 48.7473855 -12.125 46.3125 C-17.5347167 41.96120613 -20.15638901 37.92378288 -21 31 C-21.62785473 21.93415826 -22.03826734 12.98670675 -17 5 C-11.63289659 -0.23931524 -7.25320566 -0.59678274 0 0 Z " transform="translate(345,593)" style="fill: #032D51;"/><path d="M0 0 C3.63 0 7.26 0 11 0 C11 6.6 11 13.2 11 20 C14.3 20 17.6 20 21 20 C21 22.97 21 25.94 21 29 C17.7 29 14.4 29 11 29 C11.11791459 35.39051565 11.24213765 41.78086492 11.37231445 48.17114258 C11.41573507 50.34688953 11.45740471 52.52267214 11.49731445 54.69848633 C11.55484502 57.81863168 11.61858823 60.93859633 11.68359375 64.05859375 C11.70030624 65.03775253 11.71701874 66.01691132 11.73423767 67.02574158 C11.75418289 67.92659988 11.77412811 68.82745819 11.79467773 69.75561523 C11.81799416 70.95141457 11.81799416 70.95141457 11.84178162 72.17137146 C11.80400665 74.01851382 11.80400665 74.01851382 13 75 C14.34747084 75.23075082 15.70377565 75.41153063 17.0625 75.5625 C18.361875 75.706875 19.66125 75.85125 21 76 C21 78.31 21 80.62 21 83 C15.33823635 84.88725455 9.89004798 84.91127314 4.5 82.3125 C1.31532251 79.36667332 0.16371616 77.15394064 -0.16900635 72.77645874 C-0.23183113 69.99832819 -0.22456951 67.22790683 -0.1953125 64.44921875 C-0.1924826 63.43527542 -0.18965271 62.42133209 -0.18673706 61.37666321 C-0.17556625 58.14682073 -0.15046711 54.91725829 -0.125 51.6875 C-0.1149662 49.49414464 -0.10584105 47.30078492 -0.09765625 45.10742188 C-0.07563701 39.7381738 -0.04112825 34.36913434 0 29 C-2.97 29 -5.94 29 -9 29 C-9 26.03 -9 23.06 -9 20 C-6.03 20 -3.06 20 0 20 C0 13.4 0 6.8 0 0 Z " transform="translate(686,565)" style="fill: #E9EDEE;"/><path d="M0 0 C3.3 0 6.6 0 10 0 C10.01213028 1.42153885 10.01213028 1.42153885 10.02450562 2.87179565 C10.10188516 11.78927695 10.18960338 20.70660413 10.28752708 29.6238842 C10.33753993 34.20869782 10.38386933 38.79348784 10.421875 43.37841797 C10.45866504 47.80053679 10.50500746 52.22246046 10.55806351 56.64441299 C10.57664098 58.33412387 10.59173646 60.02387662 10.60334396 61.71364975 C10.62014942 64.07476674 10.64916958 66.43543351 10.68115234 68.79638672 C10.68331253 69.49985229 10.68547272 70.20331787 10.68769836 70.92810059 C10.65730678 74.9083553 10.65730678 74.9083553 13 78 C15.65537372 78.56520003 18.29144713 78.73788198 21 79 C21 81.31 21 83.62 21 86 C15.49615634 87.83461455 9.94565321 87.69487615 4.5 85.75 C1.74108035 83.81875625 1.122077 83.11010863 0 80 C-0.1802169 77.36381625 -0.25286895 74.83646932 -0.22705078 72.20214844 C-0.22734283 71.42127869 -0.22763489 70.64040894 -0.22793579 69.83587646 C-0.2265448 67.26026212 -0.21099452 64.68493868 -0.1953125 62.109375 C-0.19158155 60.32147378 -0.18873496 58.5335705 -0.18673706 56.7456665 C-0.17910707 52.04384703 -0.159464 47.34215144 -0.1373291 42.64038086 C-0.11685704 37.84100012 -0.10773243 33.04159933 -0.09765625 28.2421875 C-0.07621753 18.82807062 -0.0420892 9.41404562 0 0 Z " transform="translate(843,562)" style="fill: #FAFDFB;"/><path d="M0 0 C0 3.3 0 6.6 0 10 C-1.52625 10.226875 -3.0525 10.45375 -4.625 10.6875 C-9.87195935 11.76360906 -12.42422886 12.98815921 -16 17 C-18.64252002 22.86117202 -19.46007668 27.70982944 -19.51171875 34.09375 C-19.52966995 34.92588013 -19.54762115 35.75801025 -19.56611633 36.61535645 C-19.61980627 39.24352114 -19.65398071 41.87150865 -19.6875 44.5 C-19.72070969 46.29429528 -19.75520267 48.08856729 -19.79101562 49.8828125 C-19.87550824 54.25507956 -19.94251459 58.62729786 -20 63 C-23.63 63 -27.26 63 -31 63 C-31 42.54 -31 22.08 -31 1 C-27.37 1 -23.74 1 -20 1 C-19.67 3.64 -19.34 6.28 -19 9 C-18.2575 8.236875 -17.515 7.47375 -16.75 6.6875 C-11.19342334 1.25720917 -7.85553066 -0.14821756 0 0 Z " transform="translate(409,585)" style="fill: #F2F4F3;"/><path d="M0 0 C5.14789281 3.16707318 8.58412054 7.58768831 10.375 13.375 C10.69902197 16.45235824 10.7469935 19.52073262 10.7890625 22.61328125 C10.80842865 23.49404831 10.8277948 24.37481537 10.8477478 25.28227234 C10.90732851 28.08391766 10.95384265 30.88560456 11 33.6875 C11.03819959 35.59181438 11.07725247 37.49611185 11.1171875 39.40039062 C11.21301233 44.05845572 11.2971226 48.71660168 11.375 53.375 C12.365 53.87 12.365 53.87 13.375 54.375 C13.375 56.685 13.375 58.995 13.375 61.375 C6.11107748 61.8592615 6.11107748 61.8592615 3 59.8125 C1.00172191 56.81508286 0.35070198 53.82248033 -0.625 50.375 C-1.615 50.045 -2.605 49.715 -3.625 49.375 C-2.98046875 48.55773437 -2.3359375 47.74046875 -1.671875 46.8984375 C0.89401535 43.04960198 1.03495093 39.5270121 1.125 35 C1.15464844 34.26394531 1.18429687 33.52789063 1.21484375 32.76953125 C1.28488033 30.9719257 1.33228119 29.1734621 1.375 27.375 C0.385 27.045 -0.605 26.715 -1.625 26.375 C-2.12 24.89 -2.12 24.89 -2.625 23.375 C-1.965 22.385 -1.305 21.395 -0.625 20.375 C-0.32395996 16.23569947 -0.08499546 12.80400613 -2.625 9.375 C-7.29868055 6.47228809 -12.30284457 6.74251196 -17.625 7.375 C-21.66399214 9.39449607 -24.18795579 11.58404234 -26.625 15.375 C-32.375 13.5 -32.375 13.5 -34.625 12.375 C-34.11896008 10.20625748 -33.62516187 8.37532373 -32.625 6.375 C-31.965 6.375 -31.305 6.375 -30.625 6.375 C-30.295 5.385 -29.965 4.395 -29.625 3.375 C-21.58743625 -2.96574473 -9.32301959 -4.18476447 0 0 Z " transform="translate(753.625,586.625)" style="fill: #F8F9F8;"/><path d="M0 0 C4.16167697 2.53420553 6.54455309 5.61803428 8.09765625 10.27734375 C8.18354928 11.67389834 8.2153834 13.07420152 8.21118164 14.47338867 C8.21110611 15.31403366 8.21103058 16.15467865 8.21095276 17.02079773 C8.20579147 17.9240126 8.20063019 18.82722748 8.1953125 19.7578125 C8.19389755 20.68580154 8.1924826 21.61379059 8.19102478 22.56990051 C8.18542562 25.53491433 8.17287329 28.49985274 8.16015625 31.46484375 C8.15514114 33.47460828 8.15057825 35.484374 8.14648438 37.49414062 C8.13545646 42.42190407 8.11819242 47.34961112 8.09765625 52.27734375 C9.41765625 52.60734375 10.73765625 52.93734375 12.09765625 53.27734375 C12.09765625 55.58734375 12.09765625 57.89734375 12.09765625 60.27734375 C4.83611779 60.76965144 4.83611779 60.76965144 1.09765625 58.27734375 C0.43765625 57.61734375 -0.22234375 56.95734375 -0.90234375 56.27734375 C-0.62390625 55.38015625 -0.62390625 55.38015625 -0.33984375 54.46484375 C0.31859312 52.11325613 0.31859312 52.11325613 -0.90234375 49.27734375 C-0.24234375 48.28734375 0.41765625 47.29734375 1.09765625 46.27734375 C0.43765625 45.28734375 -0.22234375 44.29734375 -0.90234375 43.27734375 C-1.07065468 40.69277247 -1.13590709 38.23189102 -1.08984375 35.65234375 C-1.08919922 34.95882812 -1.08855469 34.2653125 -1.08789062 33.55078125 C-1.04277632 28.41777632 -1.04277632 28.41777632 0.09765625 27.27734375 C-1.22234375 26.61734375 -2.54234375 25.95734375 -3.90234375 25.27734375 C-3.90234375 24.61734375 -3.90234375 23.95734375 -3.90234375 23.27734375 C-5.55234375 22.94734375 -7.20234375 22.61734375 -8.90234375 22.27734375 C-8.57234375 21.61734375 -8.24234375 20.95734375 -7.90234375 20.27734375 C-4.83984375 19.65234375 -4.83984375 19.65234375 -1.90234375 19.27734375 C-2.13152343 17.67007048 -2.38655177 16.06646959 -2.65234375 14.46484375 C-2.7915625 13.57152344 -2.93078125 12.67820312 -3.07421875 11.7578125 C-4.11092068 8.65259682 -5.02239309 7.79854846 -7.90234375 6.27734375 C-13.59058777 5.31459441 -19.21624089 5.24303349 -24.08984375 8.58984375 C-27.07836747 11.02638028 -27.07836747 11.02638028 -27.90234375 14.27734375 C-31.2460785 13.72005462 -33.93547374 12.92560486 -36.90234375 11.27734375 C-35.5652359 5.76177388 -31.42795869 2.37504915 -26.90234375 -0.72265625 C-18.18818789 -4.31014161 -8.53429186 -3.89940815 0 0 Z " transform="translate(514.90234375,587.72265625)" style="fill: #FBFCF9;"/><path d="M0 0 C0.99 0 1.98 0 3 0 C2.97679687 0.71285156 2.95359375 1.42570313 2.9296875 2.16015625 C2.82184326 7.88360394 3.07942689 12.59838814 5 18 C5.99 18 6.98 18 8 18 C8 39.12 8 60.24 8 82 C5.36 82 2.72 82 0 82 C0 54.94 0 27.88 0 0 Z " transform="translate(229,565)" style="fill: #FEFDFB;"/><path d="M0 0 C0.1083667 2.7302389 0.18746694 5.45614543 0.25 8.1875 C0.30027344 9.34088867 0.30027344 9.34088867 0.3515625 10.51757812 C0.41819867 14.39913477 0.29843138 16.49423019 -1.71484375 19.90625 C-6.27565072 24.08504066 -11.75977014 25.70619936 -17.8125 26.5 C-21.63119505 25.90098901 -23.29054023 24.70945977 -26 22 C-27.86330667 18.27338666 -27.55690611 14.05837327 -27 10 C-22.31198794 3.32313434 -15.00280112 1.8200392 -7.4296875 0.33203125 C-4.92254669 -0.01058446 -2.52721096 -0.05845862 0 0 Z " transform="translate(754,615)" style="fill: #062D51;"/><path d="M0 0 C0.1083667 2.7302389 0.18746694 5.45614543 0.25 8.1875 C0.30027344 9.34088867 0.30027344 9.34088867 0.3515625 10.51757812 C0.42005335 14.50716985 0.32561398 16.48490058 -1.859375 19.94140625 C-7.058628 24.94141781 -11.89113005 26.36898922 -19.03125 26.2890625 C-22.19380938 25.82471846 -23.85716934 24.27269918 -26 22 C-27.43950145 17.68149564 -27.78731415 13.22864058 -26.26171875 8.91015625 C-23.20056303 4.27577498 -16.95649446 2.46244414 -11.77734375 1.23828125 C-7.82192317 0.5606211 -4.01624905 0 0 0 Z " transform="translate(513,615)" style="fill: #052D51;"/><path d="M0 0 C4.46061942 2.19118147 5.97900153 3.97200205 9 8 C9.33 11.3 9.66 14.6 10 18 C-0.56 18 -11.12 18 -22 18 C-20.8694956 7.82546037 -20.8694956 7.82546037 -18.6875 5.0625 C-18.27886719 4.51722656 -17.87023437 3.97195313 -17.44921875 3.41015625 C-12.63772176 -1.2716508 -6.28561305 -0.68998697 0 0 Z " transform="translate(902,593)" style="fill: #042C51;"/><path d="M0 0 C0.33 0.99 0.66 1.98 1 3 C1.66 3.33 2.32 3.66 3 4 C2.67854004 5.10537109 2.35708008 6.21074219 2.02587891 7.34960938 C0.77567723 12.3724582 0.65059324 17.25025075 0.5859375 22.40625 C0.56657135 23.3715564 0.5472052 24.33686279 0.5272522 25.3314209 C0.46789982 28.38752657 0.42124962 31.44367082 0.375 34.5 C0.33677936 36.58334895 0.2977253 38.66668278 0.2578125 40.75 C0.16223511 45.8332093 0.07804187 50.91649247 0 56 C-2.64 56 -5.28 56 -8 56 C-8 37.85 -8 19.7 -8 1 C-3 0 -3 0 0 0 Z " transform="translate(789,591)" style="fill: #FDFDFA;"/><path d="M0 0 C3.25910247 1.9869621 5.01885898 4.08777126 7.1015625 7.28125 C7.1015625 7.94125 7.1015625 8.60125 7.1015625 9.28125 C5.1215625 8.95125 3.1415625 8.62125 1.1015625 8.28125 C0.7715625 10.26125 0.4415625 12.24125 0.1015625 14.28125 C0.7615625 14.61125 1.4215625 14.94125 2.1015625 15.28125 C1.6065625 16.76625 1.6065625 16.76625 1.1015625 18.28125 C1.1015625 17.62125 1.1015625 16.96125 1.1015625 16.28125 C0.4415625 16.28125 -0.2184375 16.28125 -0.8984375 16.28125 C-1.3934375 17.76625 -1.3934375 17.76625 -1.8984375 19.28125 C-1.99640625 18.59417969 -2.094375 17.90710938 -2.1953125 17.19921875 C-2.34484375 16.29816406 -2.494375 15.39710938 -2.6484375 14.46875 C-2.78765625 13.57542969 -2.926875 12.68210937 -3.0703125 11.76171875 C-4.10701443 8.65650307 -5.01848684 7.80245471 -7.8984375 6.28125 C-13.58668152 5.31850066 -19.21233464 5.24693974 -24.0859375 8.59375 C-27.07446122 11.03028653 -27.07446122 11.03028653 -27.8984375 14.28125 C-31.24217225 13.72396087 -33.93156749 12.92951111 -36.8984375 11.28125 C-35.56132965 5.76568013 -31.42405244 2.3789554 -26.8984375 -0.71875 C-18.1842204 -4.30626057 -8.53623555 -3.89274585 0 0 Z " transform="translate(514.8984375,587.71875)" style="fill: #ECF0F0;"/><path d="M0 0 C2.475 1.98 2.475 1.98 5 4 C5 9.61 5 15.22 5 21 C-8.53 21 -22.06 21 -36 21 C-36 20.34 -36 19.68 -36 19 C-34.68 19 -33.36 19 -32 19 C-31.67 17.35 -31.34 15.7 -31 14 C-22.09 14 -13.18 14 -4 14 C-4.33 10.04 -4.66 6.08 -5 2 C-3.68 2 -2.36 2 -1 2 C-0.67 1.34 -0.34 0.68 0 0 Z " transform="translate(916,597)" style="fill: #FCFCFA;"/><path d="M0 0 C0.99 0.33 1.98 0.66 3 1 C3.92946829 4.00842394 4.4664345 7.0260417 5.05859375 10.1171875 C6.1510134 13.46243937 6.90756814 14.39150217 10 16 C12.57873609 16.56984448 12.57873609 16.56984448 15.25 16.6875 C16.58804687 16.78611328 16.58804687 16.78611328 17.953125 16.88671875 C18.62859375 16.92410156 19.3040625 16.96148438 20 17 C20.66 18.65 21.32 20.3 22 22 C20.14420981 24.46349614 19.21632452 24.96755132 16.109375 25.43359375 C4.33673943 25.44728286 4.33673943 25.44728286 -1 21 C-4.17233975 17.33274279 -6.28054423 13.7052182 -6.6875 8.8125 C-6.00311971 5.01730021 -5.85076657 4.34775624 -3.1875 1.9375 C-2.135625 1.298125 -1.08375 0.65875 0 0 Z " transform="translate(482,624)" style="fill: #F3F5F5;"/><path d="M0 0 C0 3.3 0 6.6 0 10 C-1.52625 10.226875 -3.0525 10.45375 -4.625 10.6875 C-9.87195935 11.76360906 -12.42422886 12.98815921 -16 17 C-18.64252002 22.86117202 -19.46007668 27.70982944 -19.51171875 34.09375 C-19.53864555 35.34194519 -19.53864555 35.34194519 -19.56611633 36.61535645 C-19.61980627 39.24352114 -19.65398071 41.87150865 -19.6875 44.5 C-19.72070969 46.29429528 -19.75520267 48.08856729 -19.79101562 49.8828125 C-19.87550824 54.25507956 -19.94251459 58.62729786 -20 63 C-20.33 63 -20.66 63 -21 63 C-21.33 52.44 -21.66 41.88 -22 31 C-22.33 31 -22.66 31 -23 31 C-24.34588235 23.65882353 -24.34588235 23.65882353 -22.6875 20.5 C-21 19 -21 19 -19 19 C-19.33 17.68 -19.66 16.36 -20 15 C-19.34 15 -18.68 15 -18 15 C-18 14.34 -18 13.68 -18 13 C-17.34 12.67 -16.68 12.34 -16 12 C-17.65 12.66 -19.3 13.32 -21 14 C-21 9.71 -21 5.42 -21 1 C-20.67 1 -20.34 1 -20 1 C-19.67 3.64 -19.34 6.28 -19 9 C-18.2575 8.236875 -17.515 7.47375 -16.75 6.6875 C-11.19342334 1.25720917 -7.85553066 -0.14821756 0 0 Z " transform="translate(409,585)" style="fill: #C2CBD2;"/><path d="M0 0 C0.99 0.33 1.98 0.66 3 1 C4.35015859 5.05047576 3.62084998 7.7920168 3 12 C3.928125 11.814375 4.85625 11.62875 5.8125 11.4375 C9 11 9 11 12 12 C12.33 11.01 12.66 10.02 13 9 C15.61514428 12.92271643 14.84728768 15.60809597 14 20 C13.39303927 22.68796895 12.71328378 25.3370739 12 28 C9.03 28 6.06 28 3 28 C2.15270806 25.33708249 1.32209568 22.67070002 0.5 20 C0.14228516 18.88431641 0.14228516 18.88431641 -0.22265625 17.74609375 C-1.7748371 12.64607097 -2.41396396 8.33553547 -2 3 C-1.34 2.01 -0.68 1.02 0 0 Z " transform="translate(257,620)" style="fill: #F8F9F8;"/><path d="M0 0 C0.33 0 0.66 0 1 0 C1.33 25.41 1.66 50.82 2 77 C6.29399165 78.07349791 7.19495213 77.79682816 11 76 C11.66 76.66 12.32 77.32 13 78 C15.65537372 78.56520003 18.29144713 78.73788198 21 79 C21 81.31 21 83.62 21 86 C15.49615634 87.83461455 9.94565321 87.69487615 4.5 85.75 C1.74108035 83.81875625 1.122077 83.11010863 0 80 C-0.1802169 77.36381625 -0.25286895 74.83646932 -0.22705078 72.20214844 C-0.22734283 71.42127869 -0.22763489 70.64040894 -0.22793579 69.83587646 C-0.2265448 67.26026212 -0.21099452 64.68493868 -0.1953125 62.109375 C-0.19158155 60.32147378 -0.18873496 58.5335705 -0.18673706 56.7456665 C-0.17910707 52.04384703 -0.159464 47.34215144 -0.1373291 42.64038086 C-0.11685704 37.84100012 -0.10773243 33.04159933 -0.09765625 28.2421875 C-0.07621753 18.82807062 -0.0420892 9.41404562 0 0 Z " transform="translate(843,562)" style="fill: #E6E8EF;"/><path d="M0 0 C-0.99 0.66 -1.98 1.32 -3 2 C-2.360625 2.12375 -1.72125 2.2475 -1.0625 2.375 C-0.381875 2.58125 0.29875 2.7875 1 3 C1.33 3.66 1.66 4.32 2 5 C4.01669827 6.13350534 4.01669827 6.13350534 6 7 C5.67 7.33 5.34 7.66 5 8 C4.87287308 10.45088882 4.81479317 12.86110545 4.8125 15.3125 C4.79413086 16.32860352 4.79413086 16.32860352 4.77539062 17.36523438 C4.76448392 21.08441947 4.94702523 23.84344986 7 27 C6.34 27.99 5.68 28.98 5 30 C5.33 30.99 5.66 31.98 6 33 C4.948125 33.61875 4.948125 33.61875 3.875 34.25 C1.81667859 35.50289129 -0.20070961 36.8240164 -2.1875 38.1875 C-5 40 -5 40 -7 40 C-7 38.35 -7 36.7 -7 35 C-7.66 34.67 -8.32 34.34 -9 34 C-9.33 33.34 -9.66 32.68 -10 32 C-8.33984375 31.38151042 -6.6796875 30.76302083 -5.01953125 30.14453125 C-1.99469814 28.43026413 -0.16320346 26.74785304 2 24 C2.72263545 21.06027734 2.78973334 18.20534788 2.8125 15.1875 C2.83763672 14.39923828 2.86277344 13.61097656 2.88867188 12.79882812 C2.94722981 10.86641627 2.97655488 8.93315673 3 7 C-0.96 7.66 -4.92 8.32 -9 9 C-8.67 6.69 -8.34 4.38 -8 2 C-9.98 2 -11.96 2 -14 2 C-9.53202599 -0.57767731 -4.97760384 -1.72301671 0 0 Z " transform="translate(510,608)" style="fill: #F2F4F3;"/><path d="M0 0 C0.66 0.66 1.32 1.32 2 2 C1.01 2.66 0.02 3.32 -1 4 C-0.50886719 4.32613281 -0.01773438 4.65226563 0.48828125 4.98828125 C2.83585947 8.11231945 2.31491722 11.44666118 2.1875 15.1875 C2.16719727 16.31188477 2.16719727 16.31188477 2.14648438 17.45898438 C2.11118539 19.30629767 2.05737917 21.15324066 2 23 C1.67 23 1.34 23 1 23 C1 18.05 1 13.1 1 8 C-1.91819239 8.61846464 -4.83441022 9.24448135 -7.75 9.875 C-8.575 10.04902344 -9.4 10.22304688 -10.25 10.40234375 C-11.04921875 10.57636719 -11.8484375 10.75039063 -12.671875 10.9296875 C-13.4050293 11.08679199 -14.13818359 11.24389648 -14.89355469 11.40576172 C-17.04394103 11.93306722 -17.04394103 11.93306722 -19.02050781 13.06689453 C-21 14 -21 14 -25 14 C-25 13.01 -25 12.02 -25 11 C-22.69 10.01 -20.38 9.02 -18 8 C-18 7.34 -18 6.68 -18 6 C-19.32 5.34 -20.64 4.68 -22 4 C-7.61757106 -0.51937984 -7.61757106 -0.51937984 0 0 Z " transform="translate(753,607)" style="fill: #EBEEEF;"/><path d="M0 0 C2.05078125 0.03255208 4.1015625 0.06510417 6.15234375 0.09765625 C7.61297225 2.74504541 8.15234375 3.99213959 8.15234375 7.09765625 C7.36730469 7.11183594 6.58226562 7.12601563 5.7734375 7.140625 C-1.37602806 7.46520196 -5.55911858 8.16168775 -10.84765625 13.09765625 C-11.17765625 14.08765625 -11.50765625 15.07765625 -11.84765625 16.09765625 C-15.191391 15.54036712 -17.88078624 14.74591736 -20.84765625 13.09765625 C-19.43927124 8.87250122 -16.73890386 7.12301874 -12.84765625 5.09765625 C-10.84804061 5.0584481 -8.84716261 5.05322278 -6.84765625 5.09765625 C-4.51310964 3.2640729 -4.51310964 3.2640729 -2.84765625 1.09765625 C-1.84765625 0.09765625 -1.84765625 0.09765625 0 0 Z " transform="translate(498.84765625,585.90234375)" style="fill: #F8FAF8;"/><path d="M0 0 C0.33 0 0.66 0 1 0 C1 13.86 1 27.72 1 42 C2.32 42.33 3.64 42.66 5 43 C5 45.31 5 47.62 5 50 C-2.26153846 50.49230769 -2.26153846 50.49230769 -6 48 C-6.66 47.34 -7.32 46.68 -8 46 C-7.814375 45.401875 -7.62875 44.80375 -7.4375 44.1875 C-6.77906313 41.83591238 -6.77906313 41.83591238 -8 39 C-4.375 36 -4.375 36 -1 36 C-0.67 24.12 -0.34 12.24 0 0 Z " transform="translate(522,598)" style="fill: #F2F7F7;"/><path d="M0 0 C0 0.33 0 0.66 0 1 C-4.67201205 2.20568053 -9.21496292 2.09382426 -14 2 C-14 3.32 -14 4.64 -14 6 C-14.66 6.66 -15.32 7.32 -16 8 C-15.67 8.66 -15.34 9.32 -15 10 C-16.52994792 11.23697917 -18.05989583 12.47395833 -19.58984375 13.7109375 C-21.13266437 14.9666391 -21.13266437 14.9666391 -22 17 C-27.75 15.125 -27.75 15.125 -30 14 C-29.49396008 11.83125748 -29.00016187 10.00032373 -28 8 C-27.34 8 -26.68 8 -26 8 C-25.67 7.01 -25.34 6.02 -25 5 C-17.3712938 -1.01820156 -9.18743503 -0.5512461 0 0 Z " transform="translate(749,585)" style="fill: #E6EBED;"/><path d="M0 0 C0.66 0.66 1.32 1.32 2 2 C2.99 2.33 3.98 2.66 5 3 C4.34 3 3.68 3 3 3 C3 3.66 3 4.32 3 5 C3.66 5.33 4.32 5.66 5 6 C4.01 6.33 3.02 6.66 2 7 C2 7.99 2 8.98 2 10 C2.66 10 3.32 10 4 10 C4.66 8.68 5.32 7.36 6 6 C6.66 6 7.32 6 8 6 C8 4.68 8 3.36 8 2 C10 3 10 3 12 6 C10.9171875 6.928125 10.9171875 6.928125 9.8125 7.875 C6.07801259 11.55613759 4.15012529 16.2880233 2 21 C1.67 21 1.34 21 1 21 C1 18.36 1 15.72 1 13 C0.13375 13.515625 -0.7325 14.03125 -1.625 14.5625 C-5.41201286 16.17548696 -7.08899564 16.00048949 -11 15 C-11.33 15 -11.66 15 -12 15 C-13.33568021 14.67619874 -14.66923011 14.34342449 -16 14 C-11.51925805 10.63944354 -8.39449293 10.72570375 -3 11 C-3 7.7 -3 4.4 -3 1 C-2.34 1.33 -1.68 1.66 -1 2 C-0.67 1.34 -0.34 0.68 0 0 Z " transform="translate(412,584)" style="fill: #092E52;"/><path d="M0 0 C1.04800781 -0.01160156 1.04800781 -0.01160156 2.1171875 -0.0234375 C6.18628563 -0.00808241 9.34061531 0.4488966 13 2.25 C12 5.25 12 5.25 9.9375 6.4375 C9.298125 6.705625 8.65875 6.97375 8 7.25 C9.32 8.24 10.64 9.23 12 10.25 C11.67 10.91 11.34 11.57 11 12.25 C10.47921875 11.93289063 9.9584375 11.61578125 9.421875 11.2890625 C6.32591291 9.96079489 3.60595879 9.82635753 0.25 9.625 C-0.92046875 9.55023437 -2.0909375 9.47546875 -3.296875 9.3984375 C-4.18890625 9.34945312 -5.0809375 9.30046875 -6 9.25 C-5.34 7.93 -4.68 6.61 -4 5.25 C-4.66 4.59 -5.32 3.93 -6 3.25 C-4.02 3.25 -2.04 3.25 0 3.25 C-3.27185553 2.17689142 -5.42947592 2.35736898 -8.75 3.1875 C-9.54921875 3.38214844 -10.3484375 3.57679688 -11.171875 3.77734375 C-12.07679688 4.01130859 -12.07679688 4.01130859 -13 4.25 C-13 3.59 -13 2.93 -13 2.25 C-8.68531175 0.12636438 -4.71753113 -0.05222359 0 0 Z " transform="translate(640,562.75)" style="fill: #E8ECED;"/><path d="M0 0 C0 3.3 0 6.6 0 10 C-1.74714233 10.25002209 -3.49799141 10.47423194 -5.25 10.6875 C-6.22453125 10.81511719 -7.1990625 10.94273437 -8.203125 11.07421875 C-11.48272731 10.9871902 -12.63310671 10.19219402 -15 8 C-14.62118922 5.25362183 -14.22167713 4.19950942 -12.125 2.3125 C-8.06616592 -0.19442693 -4.66790835 -0.08807374 0 0 Z " transform="translate(409,585)" style="fill: #EAEEF1;"/><path d="M0 0 C2.06741697 3.10112546 2.89716328 5.56910022 3.9453125 9.12890625 C4.29980469 10.32837891 4.65429688 11.52785156 5.01953125 12.76367188 C5.38433594 14.01728516 5.74914062 15.27089844 6.125 16.5625 C6.49753906 17.81998047 6.87007812 19.07746094 7.25390625 20.37304688 C10 29.72284226 10 29.72284226 10 32 C8.02 32 6.04 32 4 32 C4.020625 31.113125 4.04125 30.22625 4.0625 29.3125 C4.00713781 26.37830369 3.6694266 23.84506304 3 21 C2.34 21 1.68 21 1 21 C0.25194283 13.97360585 -0.13794954 7.06608191 0 0 Z " transform="translate(238,574)" style="fill: #022E57;"/><path d="M0 0 C0.66 0.33 1.32 0.66 2 1 C2 2.32 2 3.64 2 5 C2.99 5.33 3.98 5.66 5 6 C4.67 7.65 4.34 9.3 4 11 C3.34 10.01 2.68 9.02 2 8 C1.45730469 8.42152344 0.91460937 8.84304688 0.35546875 9.27734375 C-0.35996094 9.82519531 -1.07539063 10.37304688 -1.8125 10.9375 C-2.52019531 11.48277344 -3.22789062 12.02804687 -3.95703125 12.58984375 C-7.21453706 14.83833247 -9.83997793 15.11826119 -13.6875 15.0625 C-14.89986328 15.04896484 -14.89986328 15.04896484 -16.13671875 15.03515625 C-17.05904297 15.01775391 -17.05904297 15.01775391 -18 15 C-18 14.67 -18 14.34 -18 14 C-15.69 14 -13.38 14 -11 14 C-11.33 12.35 -11.66 10.7 -12 9 C-10.68 9 -9.36 9 -8 9 C-8.33 8.01 -8.66 7.02 -9 6 C-3.25 3 -3.25 3 -1 3 C-0.67 2.01 -0.34 1.02 0 0 Z " transform="translate(451,634)" style="fill: #EAEEEF;"/><path d="M0 0 C0.33 0 0.66 0 1 0 C1.33 13.2 1.66 26.4 2 40 C2.66 40.33 3.32 40.66 4 41 C4 43.31 4 45.62 4 48 C-3.38461538 48.49230769 -3.38461538 48.49230769 -6.5 46 C-6.995 45.34 -7.49 44.68 -8 44 C-7.34 43.34 -6.68 42.68 -6 42 C-5.34 42.33 -4.68 42.66 -4 43 C-3.34 41.35 -2.68 39.7 -2 38 C-1.67 38 -1.34 38 -1 38 C-0.67 25.46 -0.34 12.92 0 0 Z " transform="translate(763,600)" style="fill: #D4DBE0;"/><path d="M0 0 C2.62386487 3.06117568 3 3.73173127 3 8 C4.32 7.67 5.64 7.34 7 7 C7 5.35 7 3.7 7 2 C8.65 2 10.3 2 12 2 C10.64746536 8.45054982 8.96939767 14.71105679 7 21 C4.11133942 17.61007185 2.74237946 14.11177313 1.25 9.9375 C0.80140625 8.70902344 0.3528125 7.48054687 -0.109375 6.21484375 C-1 3 -1 3 0 0 Z " transform="translate(948,611)" style="fill: #0D2F52;"/><path d="M0 0 C2.625 2 2.625 2 4 4 C2 5 2 5 -1 4 C-0.67 4.99 -0.34 5.98 0 7 C-5.28 7 -10.56 7 -16 7 C-15.34 6.67 -14.68 6.34 -14 6 C-13.34444881 3.47266765 -13.34444881 3.47266765 -13 1 C-8.68284941 -0.4390502 -4.51173786 -0.56858235 0 0 Z " transform="translate(902,585)" style="fill: #FAFCF9;"/><path d="M0 0 C0.625 1.8125 0.625 1.8125 1 4 C0.01 5.485 0.01 5.485 -1 7 C-3.86079547 7.1688047 -6.52581647 7.18792087 -9.375 7.0625 C-16.00016077 6.5781689 -16.00016077 6.5781689 -22 9 C-14.92890672 1.52484425 -9.93687177 -0.16561453 0 0 Z " transform="translate(502,610)" style="fill: #F0F3F3;"/><path d="M0 0 C-0.99 0.66 -1.98 1.32 -3 2 C-2.360625 2.12375 -1.72125 2.2475 -1.0625 2.375 C-0.381875 2.58125 0.29875 2.7875 1 3 C1.33 3.66 1.66 4.32 2 5 C4.01669827 6.13350534 4.01669827 6.13350534 6 7 C5.67 7.33 5.34 7.66 5 8 C4.76472227 10.34987262 4.58613583 12.70556039 4.4375 15.0625 C4.35371094 16.35285156 4.26992188 17.64320313 4.18359375 18.97265625 C4.09271484 20.47119141 4.09271484 20.47119141 4 22 C3.67 22 3.34 22 3 22 C3 17.05 3 12.1 3 7 C-0.96 7.66 -4.92 8.32 -9 9 C-8.67 6.69 -8.34 4.38 -8 2 C-9.98 2 -11.96 2 -14 2 C-9.53202599 -0.57767731 -4.97760384 -1.72301671 0 0 Z " transform="translate(510,608)" style="fill: #D5DADF;"/><path d="M0 0 C0.66 0.33 1.32 0.66 2 1 C2 28.39 2 55.78 2 84 C1.67 84 1.34 84 1 84 C0.99191315 82.98966705 0.98382629 81.97933411 0.97549438 80.93838501 C0.89812055 71.43226504 0.81040377 61.92628974 0.71247292 52.42035866 C0.66245646 47.53287233 0.61612707 42.64540818 0.578125 37.7578125 C0.54133955 33.04392757 0.49499835 28.33022588 0.44193649 23.61649704 C0.42335658 21.81514057 0.40826202 20.01374477 0.39665604 18.21232986 C0.37985482 15.69556022 0.35083548 13.17921353 0.31884766 10.66259766 C0.31668747 9.91237839 0.31452728 9.16215912 0.31230164 8.38920593 C0.37355765 4.23964898 0.37355765 4.23964898 -2 1 C-1.34 0.67 -0.68 0.34 0 0 Z " transform="translate(226,564)" style="fill: #0B294E;"/><path d="M0 0 C6.51361868 3.37743191 6.51361868 3.37743191 8.5625 6 C9 8 9 8 7 12 C9.97 12 12.94 12 16 12 C16 12.33 16 12.66 16 13 C9.18401613 13.33278764 4.07877934 13.24201565 -2 10 C-1.34 8.35 -0.68 6.7 0 5 C-0.66 4.67 -1.32 4.34 -2 4 C-2 3.34 -2 2.68 -2 2 C-1.34 2 -0.68 2 0 2 C0 1.34 0 0.68 0 0 Z " transform="translate(329,636)" style="fill: #EAEDEF;"/><path d="M0 0 C0.33 0 0.66 0 1 0 C1 24.09 1 48.18 1 73 C0.67 73 0.34 73 0 73 C-0.33 52.54 -0.66 32.08 -1 11 C-1.99 11.495 -1.99 11.495 -3 12 C-2.01 8.04 -1.02 4.08 0 0 Z " transform="translate(290,574)" style="fill: #133250;"/><path d="M0 0 C0.33 0.66 0.66 1.32 1 2 C1.66 2 2.32 2 3 2 C3 3.32 3 4.64 3 6 C16.86 6.495 16.86 6.495 31 7 C31 7.66 31 8.32 31 9 C20.44 9 9.88 9 -1 9 C-0.67 6.03 -0.34 3.06 0 0 Z " transform="translate(881,602)" style="fill: #203C58;"/><path d="M0 0 C3.45240035 1.86616235 6.20963691 3.41927381 8 7 C7.1875 9.75 7.1875 9.75 6 12 C4.948125 11.566875 4.948125 11.566875 3.875 11.125 C1.03262004 10.69434336 1.03262004 10.69434336 -0.66796875 12.26953125 C-2.17706479 13.80013459 -3.61434662 15.35721507 -5 17 C-5.66 16.67 -6.32 16.34 -7 16 C-6.66226563 15.43152344 -6.32453125 14.86304688 -5.9765625 14.27734375 C-3.25311261 9.56246952 -1.24133018 5.30386531 0 0 Z " transform="translate(949,646)" style="fill: #EAEEF0;"/><path d="M0 0 C0.45375 0.495 0.9075 0.99 1.375 1.5 C2.87635519 3.22609337 2.87635519 3.22609337 5 3 C5.66 4.65 6.32 6.3 7 8 C7 7.01 7 6.02 7 5 C7.66 5.33 8.32 5.66 9 6 C8.01 7.65 7.02 9.3 6 11 C5.195625 10.690625 5.195625 10.690625 4.375 10.375 C1.8773783 9.78922589 1.8773783 9.78922589 -0.875 11 C-4.39046681 12.12494938 -6.45371257 11.84435415 -10 11 C-7 9 -7 9 -4 8 C-1.72382347 5.46118772 -0.59887408 3.35369486 0 0 Z " transform="translate(453,654)" style="fill: #EAEDEF;"/><path d="M0 0 C1.65 0 3.3 0 5 0 C4.83886719 0.57105469 4.67773438 1.14210938 4.51171875 1.73046875 C3.08581282 8.05452484 3.93838439 13.94400414 6 20 C4.02 19.34 2.04 18.68 0 18 C0 15.36 0 12.72 0 10 C-0.66 10 -1.32 10 -2 10 C-1.34 6.7 -0.68 3.4 0 0 Z " transform="translate(611,576)" style="fill: #042B51;"/><path d="M0 0 C1.99954746 -0.04254356 4.00041636 -0.04080783 6 0 C7 1 7 1 7.0625 4.0625 C7.041875 5.031875 7.02125 6.00125 7 7 C4.03 8.65 1.06 10.3 -2 12 C-2.21278058 7.53160785 -1.59138085 4.17737474 0 0 Z " transform="translate(663,616)" style="fill: #FAFBFA;"/><path d="M0 0 C4.62 0 9.24 0 14 0 C12.68 0.33 11.36 0.66 10 1 C10.185625 1.639375 10.37125 2.27875 10.5625 2.9375 C10.706875 3.618125 10.85125 4.29875 11 5 C10 6 10 6 7.71484375 6.09765625 C6.34005859 6.08025391 6.34005859 6.08025391 4.9375 6.0625 C4.01839844 6.05347656 3.09929688 6.04445313 2.15234375 6.03515625 C1.44207031 6.02355469 0.73179687 6.01195312 0 6 C0 6.66 0 7.32 0 8 C-3 7 -3 7 -4 5 C-3.525625 4.54625 -3.05125 4.0925 -2.5625 3.625 C-0.90972192 2.06741796 -0.90972192 2.06741796 0 0 Z " transform="translate(735,586)" style="fill: #FBFCF9;"/><path d="M0 0 C0.99 0.66 1.98 1.32 3 2 C2.01 2.495 2.01 2.495 1 3 C1 3.99 1 4.98 1 6 C1.66 5.01 2.32 4.02 3 3 C3.66 3.33 4.32 3.66 5 4 C4.67 4.99 4.34 5.98 4 7 C4.78375 6.938125 5.5675 6.87625 6.375 6.8125 C7.674375 6.9053125 7.674375 6.9053125 9 7 C9.99 8.485 9.99 8.485 11 10 C4.375 12.875 4.375 12.875 1 14 C1 13.01 1 12.02 1 11 C0.01 10.67 -0.98 10.34 -2 10 C-1.814375 9.071875 -1.62875 8.14375 -1.4375 7.1875 C-0.75876119 3.98656229 -0.75876119 3.98656229 -2 1 C-1.34 0.67 -0.68 0.34 0 0 Z " transform="translate(483,601)" style="fill: #103558;"/><path d="M0 0 C4.16478667 0.04999744 5.82368883 0.15111621 9.4375 2.375 C10.015 3.035 10.5925 3.695 11.1875 4.375 C10.8575 5.035 10.5275 5.695 10.1875 6.375 C7.125 7 7.125 7 4.1875 7.375 C3.1975 6.055 2.2075 4.735 1.1875 3.375 C0.1975 3.705 -0.7925 4.035 -1.8125 4.375 C-5 3.4375 -5 3.4375 -7.8125 2.375 C-5.14765635 -0.28984365 -3.71370172 0.04579164 0 0 Z M-0.8125 5.375 C2.1875 6.375 2.1875 6.375 2.1875 6.375 Z " transform="translate(500.8125,592.625)" style="fill: #103253;"/><path d="M0 0 C0.33 0 0.66 0 1 0 C1.33 2.64 1.66 5.28 2 8 C3.32 6.68 4.64 5.36 6 4 C6.33 4.99 6.66 5.98 7 7 C8.29355827 8.37195574 9.62298702 9.71182656 11 11 C8.69 12.65 6.38 14.3 4 16 C3.67 14.68 3.34 13.36 3 12 C3.66 11.67 4.32 11.34 5 11 C3.35 11.66 1.7 12.32 0 13 C0 8.71 0 4.42 0 0 Z " transform="translate(388,586)" style="fill: #D3D9DC;"/><path d="M0 0 C3.73487777 0.4979837 5.81237635 0.87491756 9 3 C8.34 4.65 7.68 6.3 7 8 C6.01 7.67 5.02 7.34 4 7 C4 6.01 4 5.02 4 4 C0.35503155 5.26082419 0.35503155 5.26082419 -2.5625 7.6875 C-3.036875 8.120625 -3.51125 8.55375 -4 9 C-6.1875 8.6875 -6.1875 8.6875 -8 8 C-7.05125 7.4225 -6.1025 6.845 -5.125 6.25 C-2.23865902 4.17183449 -1.15904259 3.24531925 0 0 Z " transform="translate(912,631)" style="fill: #E3E9EB;"/><path d="M0 0 C0.33 0 0.66 0 1 0 C1.33 12.87 1.66 25.74 2 39 C2.66 39.33 3.32 39.66 4 40 C2.02 40.495 2.02 40.495 0 41 C-2.52221218 37.21668174 -1.85086431 36.33712052 -1 32 C-0.85663053 29.47321972 -0.75442963 26.9439154 -0.68359375 24.4140625 C-0.66281265 23.71227875 -0.64203156 23.010495 -0.62062073 22.28744507 C-0.55573676 20.06672042 -0.4965277 17.84588724 -0.4375 15.625 C-0.39425646 14.11066629 -0.3506404 12.59634317 -0.30664062 11.08203125 C-0.20011914 7.38813345 -0.09868323 3.69411646 0 0 Z " transform="translate(699,600)" style="fill: #013059;"/><path d="M0 0 C1.49739583 1.26953125 2.99479167 2.5390625 4.4921875 3.80859375 C6.00594079 5.0878152 6.00594079 5.0878152 8 6 C7 8 7 8 5 9 C3.63755204 10.64295195 2.30135125 12.30824337 1 14 C-0.32 12.68 -1.64 11.36 -3 10 C-2.01 9.67 -1.02 9.34 0 9 C0.33 8.34 0.66 7.68 1 7 C0.34 7 -0.32 7 -1 7 C-1.33 5.35 -1.66 3.7 -2 2 C-1.34 2 -0.68 2 0 2 C0 1.34 0 0.68 0 0 Z " transform="translate(626,632)" style="fill: #E9EDEE;"/><path d="M0 0 C2.42115191 2.42115191 2.60948898 3.64160525 3 7 C2.5625 9.8125 2.5625 9.8125 2 12 C0.02 12 -1.96 12 -4 12 C-3.67 8.37 -3.34 4.74 -3 1 C-2.01 0.67 -1.02 0.34 0 0 Z " transform="translate(931,596)" style="fill: #0D3456;"/><path d="M0 0 C3.1875 1.375 3.1875 1.375 5 3 C5 3.66 5 4.32 5 5 C3.68 5 2.36 5 1 5 C0.505 4.484375 0.01 3.96875 -0.5 3.4375 C-0.995 2.963125 -1.49 2.48875 -2 2 C-3.88096082 2.32869454 -3.88096082 2.32869454 -6 3 C-7.58226891 3.35889212 -9.16562863 3.71300632 -10.75 4.0625 C-11.54921875 4.23910156 -12.3484375 4.41570313 -13.171875 4.59765625 C-13.77515625 4.73042969 -14.3784375 4.86320313 -15 5 C-15 4.01 -15 3.02 -15 2 C-10.22791316 -0.81833834 -5.3916633 -0.53438083 0 0 Z " transform="translate(747,593)" style="fill: #10314F;"/><path d="M0 0 C0.85722656 -0.00515625 1.71445312 -0.0103125 2.59765625 -0.015625 C4.9375 0.25 4.9375 0.25 7.9375 2.25 C5.38681155 4.60448165 4.22732642 5.23327924 0.6875 5.4375 C-0.67375 5.3446875 -0.67375 5.3446875 -2.0625 5.25 C-2.0625 4.59 -2.0625 3.93 -2.0625 3.25 C-2.84625 3.45625 -3.63 3.6625 -4.4375 3.875 C-5.30375 3.99875 -6.17 4.1225 -7.0625 4.25 C-7.7225 3.59 -8.3825 2.93 -9.0625 2.25 C-5.93061623 0.41882898 -3.61429405 -0.0218057 0 0 Z " transform="translate(340.0625,592.75)" style="fill: #0F3254;"/><path d="M0 0 C1.3125 1.9375 1.3125 1.9375 2 4 C1.67 4.66 1.34 5.32 1 6 C-1.31 6 -3.62 6 -6 6 C-6.99 4.02 -7.98 2.04 -9 0 C-5.69978999 -0.8250525 -3.17546695 -1.42348518 0 0 Z " transform="translate(502,642)" style="fill: #FBFCFA;"/><path d="M0 0 C-0.33 0.99 -0.66 1.98 -1 3 C-0.61067144 5.14255793 -0.61067144 5.14255793 0 7 C-4.64849515 9.3992233 -8.91086074 9.19957409 -14 9 C-14 8.67 -14 8.34 -14 8 C-11.69 8 -9.38 8 -7 8 C-7.33 6.35 -7.66 4.7 -8 3 C-6.68 3 -5.36 3 -4 3 C-4.33 2.01 -4.66 1.02 -5 0 C-2 -1 -2 -1 0 0 Z " transform="translate(447,640)" style="fill: #E6EAEC;"/><path d="M0 0 C0.66 0 1.32 0 2 0 C1.979375 1.051875 1.95875 2.10375 1.9375 3.1875 C1.98896802 6.32704904 2.26517187 8.96883396 3 12 C-0.625 15 -0.625 15 -4 15 C-3.69255859 14.00419922 -3.69255859 14.00419922 -3.37890625 12.98828125 C-3.10949219 12.10527344 -2.84007812 11.22226562 -2.5625 10.3125 C-2.29566406 9.44238281 -2.02882813 8.57226562 -1.75390625 7.67578125 C-1.03655471 5.12974079 -0.482459 2.5996577 0 0 Z " transform="translate(970,609)" style="fill: #113455;"/><path d="M0 0 C0.515625 0.391875 1.03125 0.78375 1.5625 1.1875 C-0.0875 1.8475 -1.7375 2.5075 -3.4375 3.1875 C-2.1175 4.5075 -0.7975 5.8275 0.5625 7.1875 C-4.1875 10.1875 -4.1875 10.1875 -6.4375 10.1875 C-6.4375 8.5375 -6.4375 6.8875 -6.4375 5.1875 C-7.0975 4.8575 -7.7575 4.5275 -8.4375 4.1875 C-8.7675 3.5275 -9.0975 2.8675 -9.4375 2.1875 C-3.0375 -1.0125 -3.0375 -1.0125 0 0 Z " transform="translate(509.4375,637.8125)" style="fill: #EAEDEE;"/><path d="M0 0 C2.97 0 5.94 0 9 0 C8.67 1.98 8.34 3.96 8 6 C5.36 6 2.72 6 0 6 C0 4.02 0 2.04 0 0 Z " transform="translate(928,666)" style="fill: #FCFCF9;"/><path d="M0 0 C1.32 0.33 2.64 0.66 4 1 C3.67 3.31 3.34 5.62 3 8 C0.03 8 -2.94 8 -6 8 C-5.67 7.34 -5.34 6.68 -5 6 C-4.34 6.33 -3.68 6.66 -3 7 C-2.67 5.35 -2.34 3.7 -2 2 C-1.34 2 -0.68 2 0 2 C0 1.34 0 0.68 0 0 Z " transform="translate(266,640)" style="fill: #EEF0F0;"/><path d="M0 0 C0 0.99 0 1.98 0 3 C-0.639375 3.12375 -1.27875 3.2475 -1.9375 3.375 C-2.618125 3.58125 -3.29875 3.7875 -4 4 C-4.33 4.66 -4.66 5.32 -5 6 C-3.02 6 -1.04 6 1 6 C0.67 6.99 0.34 7.98 0 9 C-2.97 8.67 -5.94 8.34 -9 8 C-9 5.69 -9 3.38 -9 1 C-4.545 0.505 -4.545 0.505 0 0 Z " transform="translate(687,585)" style="fill: #FAFBF7;"/><path d="M0 0 C2.18085057 3.27127586 2.24887859 4.27376723 2.1875 8.0625 C2.18105469 8.94035156 2.17460937 9.81820312 2.16796875 10.72265625 C2 13 2 13 1 15 C-0.65 14.67 -2.3 14.34 -4 14 C-3.52372025 12.04096255 -3.04388577 10.08278903 -2.5625 8.125 C-2.29566406 7.03445313 -2.02882813 5.94390625 -1.75390625 4.8203125 C-1 2 -1 2 0 0 Z " transform="translate(285,592)" style="fill: #153758;"/><path d="M0 0 C1.32 0.66 2.64 1.32 4 2 C3.01 2.495 3.01 2.495 2 3 C1.53476937 4.89533342 1.53476937 4.89533342 1.375 7.0625 C1.189375 9.0115625 1.189375 9.0115625 1 11 C-4.78461538 7.55384615 -4.78461538 7.55384615 -5.875 4.75 C-5.91625 4.1725 -5.9575 3.595 -6 3 C-4 3 -2 3 0 3 C0 2.01 0 1.02 0 0 Z " transform="translate(815,586)" style="fill: #EBEFF0;"/><path d="M0 0 C5.1103144 1.1454153 9.37234081 2.45478745 14 5 C13.67 5.66 13.34 6.32 13 7 C10.03 7 7.06 7 4 7 C4 5.35 4 3.7 4 2 C2.35 2 0.7 2 -1 2 C-0.67 1.34 -0.34 0.68 0 0 Z " transform="translate(732,641)" style="fill: #F8FBF9;"/><path d="M0 0 C1.66611905 -0.042721 3.33382885 -0.04063832 5 0 C6 1 6 1 6.0625 3.5625 C6.041875 4.366875 6.02125 5.17125 6 6 C3.64561267 7.42944945 2.51967567 8.08661261 -0.25 7.625 C-0.8275 7.41875 -1.405 7.2125 -2 7 C-1.34 4.69 -0.68 2.38 0 0 Z " transform="translate(649,603)" style="fill: #FCFCFA;"/><path d="M0 0 C0.66 0.33 1.32 0.66 2 1 C2 1.66 2 2.32 2 3 C2.66 3 3.32 3 4 3 C3 5 2 7 1 9 C-0.65 8.67 -2.3 8.34 -4 8 C-4.33 6.35 -4.66 4.7 -5 3 C-2.625 1.4375 -2.625 1.4375 0 0 Z " transform="translate(726,593)" style="fill: #F1F3F4;"/><path d="M0 0 C1.73169596 3.1622274 2.7128976 6.26742722 3.625 9.75 C3.88539063 10.73484375 4.14578125 11.7196875 4.4140625 12.734375 C4.60742188 13.48203125 4.80078125 14.2296875 5 15 C3 17 3 17 1 17 C-1.48063781 5.47835991 -1.48063781 5.47835991 0 0 Z " transform="translate(250,614)" style="fill: #113656;"/><path d="M0 0 C2.37599719 3.56399578 3.15731805 7.08381174 4.125 11.1875 C4.30675781 11.93708984 4.48851562 12.68667969 4.67578125 13.45898438 C5.12251686 15.30470781 5.5619694 17.15219132 6 19 C4.02 19 2.04 19 0 19 C0.08378906 18.29875 0.16757813 17.5975 0.25390625 16.875 C0.88446712 11.00040763 0.98934629 5.8261504 0 0 Z " transform="translate(242,587)" style="fill: #1C3C5B;"/><path d="M0 0 C0.66 0.99 1.32 1.98 2 3 C4.26264518 6.39120804 4.26264518 6.39120804 8 8 C8 6.02 8 4.04 8 2 C8.33 2 8.66 2 9 2 C9 4.31 9 6.62 9 9 C1.78287462 9.48929664 1.78287462 9.48929664 -2 7.125 C-4 5 -4 5 -4 3 C-3.01 3 -2.02 3 -1 3 C-0.67 2.01 -0.34 1.02 0 0 Z " transform="translate(518,639)" style="fill: #E1E7EA;"/><path d="M0 0 C-0.99 2.31 -1.98 4.62 -3 7 C-4.98 7 -6.96 7 -9 7 C-8.01 6.34 -7.02 5.68 -6 5 C-7.98 5 -9.96 5 -12 5 C-8.98541648 1.5216344 -4.71726343 -2.35863172 0 0 Z " transform="translate(353,647)" style="fill: #113757;"/><path d="M0 0 C1.65 0 3.3 0 5 0 C5.125 5.75 5.125 5.75 4 8 C4.99 8.33 5.98 8.66 7 9 C6.01 9.495 6.01 9.495 5 10 C4.67 10.99 4.34 11.98 4 13 C-0.59225513 4.738041 -0.59225513 4.738041 0 0 Z " transform="translate(424,624)" style="fill: #062E52;"/><path d="M0 0 C2.97550031 3.0684847 3.96474513 4.46236331 4.25 8.8125 C4.1675 9.864375 4.085 10.91625 4 12 C3.01 12.33 2.02 12.66 1 13 C-2.06707855 6.62047661 -2.06707855 6.62047661 -1.75 3.6875 C-1.19742351 2.44420289 -0.60846174 1.21692349 0 0 Z " transform="translate(364,592)" style="fill: #0C3152;"/><path d="M0 0 C-0.99 0.33 -1.98 0.66 -3 1 C-3.73323796 3.01508358 -3.73323796 3.01508358 -4 5 C-5.65 4.67 -7.3 4.34 -9 4 C-9.66 5.32 -10.32 6.64 -11 8 C-11.99 7.01 -12.98 6.02 -14 5 C-5.70258621 -2.11206897 -5.70258621 -2.11206897 0 0 Z " transform="translate(892,586)" style="fill: #E7EBEC;"/><path d="M0 0 C3.2910841 3.60957611 4.54663921 6.12637153 5 11 C4.01 11 3.02 11 2 11 C1.34 10.01 0.68 9.02 0 8 C-0.98095748 6.98131338 -1.97702078 5.97648017 -3 5 C-1.125 1.125 -1.125 1.125 0 0 Z " transform="translate(952,641)" style="fill: #FAFBF8;"/><path d="M0 0 C0.66 0.33 1.32 0.66 2 1 C1.67 2.32 1.34 3.64 1 5 C1.66 5 2.32 5 3 5 C3 5.99 3 6.98 3 8 C1.68 7.67 0.36 7.34 -1 7 C-1 7.66 -1 8.32 -1 9 C-1.66 9 -2.32 9 -3 9 C-3.66 7.02 -4.32 5.04 -5 3 C-2.625 1.4375 -2.625 1.4375 0 0 Z " transform="translate(485,635)" style="fill: #FAFBF8;"/><path d="M0 0 C0 0.66 0 1.32 0 2 C-1.6796875 3.5078125 -1.6796875 3.5078125 -3.875 5.125 C-4.95394531 5.93324219 -4.95394531 5.93324219 -6.0546875 6.7578125 C-8 8 -8 8 -10 8 C-10 5.69 -10 3.38 -10 1 C-6.61981469 -0.04005702 -3.5219721 -0.08004482 0 0 Z " transform="translate(559,585)" style="fill: #27425F;"/><path d="M0 0 C0.66 0 1.32 0 2 0 C4.12711023 5.38033764 4.12711023 5.38033764 3.5 8.4375 C2.80467541 12.00103854 3.86919903 14.60759709 5 18 C4.34 18 3.68 18 3 18 C2.29805625 15.94237091 1.61398303 13.87863969 0.9375 11.8125 C0.55464844 10.66394531 0.17179688 9.51539063 -0.22265625 8.33203125 C-0.99406151 5.02545492 -0.96093996 3.20917686 0 0 Z " transform="translate(250,576)" style="fill: #0F3153;"/><path d="M0 0 C0.20625 0.5775 0.4125 1.155 0.625 1.75 C2.48481665 4.79333634 5.04544187 6.07311426 8 8 C8 8.66 8 9.32 8 10 C8.66 10.66 9.32 11.32 10 12 C8.02 12.99 8.02 12.99 6 14 C5.34 13.34 4.68 12.68 4 12 C4.33 11.67 4.66 11.34 5 11 C4.01 10.67 3.02 10.34 2 10 C-0.4294516 6.3558226 -0.16179575 4.28758728 0 0 Z " transform="translate(686,640)" style="fill: #052F54;"/><path d="M0 0 C2.1640625 0.0234375 2.1640625 0.0234375 4.625 0.375 C5.85089844 0.54128906 5.85089844 0.54128906 7.1015625 0.7109375 C7.72804688 0.80632813 8.35453125 0.90171875 9 1 C9 2.65 9 4.3 9 6 C4.6109185 5.48964169 1.66291938 4.47785723 -2 2 C-1.34 1.34 -0.68 0.68 0 0 Z " transform="translate(631,634)" style="fill: #123457;"/><path d="M0 0 C0.33 0.66 0.66 1.32 1 2 C1.33 2.33 1.66 2.66 2 3 C2.33 3.66 2.66 4.32 3 5 C2.01 5 1.02 5 0 5 C-0.33 5.99 -0.66 6.98 -1 8 C-1.66 8 -2.32 8 -3 8 C-3.33 9.32 -3.66 10.64 -4 12 C-4.66 12 -5.32 12 -6 12 C-6 10.02 -6 8.04 -6 6 C-5.01 6 -4.02 6 -3 6 C-2.87625 5.195625 -2.7525 4.39125 -2.625 3.5625 C-2.41875 2.716875 -2.2125 1.87125 -2 1 C-1.34 0.67 -0.68 0.34 0 0 Z " transform="translate(964,615)" style="fill: #FBFDFA;"/><path d="M0 0 C0.144375 0.639375 0.28875 1.27875 0.4375 1.9375 C0.81007181 3.97545146 0.81007181 3.97545146 2 5 C2.375 7.875 2.375 7.875 2 11 C-0.38892501 12.88599343 -1.91851558 14 -5 14 C-3.45730076 9.27934033 -1.92205381 4.58335908 0 0 Z " transform="translate(958,648)" style="fill: #173857;"/><path d="M0 0 C3.00617269 3.00617269 2.59585316 5.82381598 3 10 C2.34 10 1.68 10 1 10 C0.67 10.66 0.34 11.32 0 12 C-0.99 12 -1.98 12 -3 12 C-2.01 8.04 -1.02 4.08 0 0 Z " transform="translate(962,634)" style="fill: #143558;"/><path d="M0 0 C0.66 0.66 1.32 1.32 2 2 C3.31747324 2.69748583 4.64914193 3.36959957 6 4 C0.25 8 0.25 8 -2 8 C-2.33 6.68 -2.66 5.36 -3 4 C-2.34 4 -1.68 4 -1 4 C-1 3.34 -1 2.68 -1 2 C-1.99 2.33 -2.98 2.66 -4 3 C-4 2.34 -4 1.68 -4 1 C-2 0 -2 0 0 0 Z " transform="translate(504,632)" style="fill: #113557;"/><path d="M0 0 C1.33981486 0.3062434 2.67511887 0.63451555 4 1 C3.67 2.32 3.34 3.64 3 5 C2.34 4.67 1.68 4.34 1 4 C0.566875 4.495 0.13375 4.99 -0.3125 5.5 C-2 7 -2 7 -5 7 C-5.125 4.625 -5.125 4.625 -5 2 C-3 0 -3 0 0 0 Z " transform="translate(361,603)" style="fill: #FCFCFA;"/><path d="M0 0 C3 1.5 3 1.5 6 3 C5.25 7.75 5.25 7.75 3 10 C2.67 9.01 2.34 8.02 2 7 C1.34 7 0.68 7 0 7 C-0.38133299 5.0085944 -0.71325582 3.00720923 -1 1 C-0.67 0.67 -0.34 0.34 0 0 Z " transform="translate(625,625)" style="fill: #103459;"/><path d="M0 0 C1.32 0.66 2.64 1.32 4 2 C3.360625 2.433125 2.72125 2.86625 2.0625 3.3125 C-0.26746003 4.91239177 -0.26746003 4.91239177 -1 8 C-4.34373475 7.44271087 -7.03312999 6.64826111 -10 5 C-9.67 4.34 -9.34 3.68 -9 3 C-8.2575 3.2475 -7.515 3.495 -6.75 3.75 C-5.38875 3.87375 -5.38875 3.87375 -4 4 C-1.66545339 2.16641665 -1.66545339 2.16641665 0 0 Z " transform="translate(488,594)" style="fill: #E2E7EA;"/><path d="M0 0 C2.375 -0.1875 2.375 -0.1875 5 0 C5.66 0.99 6.32 1.98 7 3 C2.25 7.875 2.25 7.875 0 9 C0 6.03 0 3.06 0 0 Z " transform="translate(389,586)" style="fill: #103254;"/><path d="M0 0 C0.66 1.32 1.32 2.64 2 4 C1.01 4.495 1.01 4.495 0 5 C-0.33 5.66 -0.66 6.32 -1 7 C-1.99 6.67 -2.98 6.34 -4 6 C-4.33 6.66 -4.66 7.32 -5 8 C-6.30915279 9.03145371 -7.64082143 10.03542166 -9 11 C-7.59928507 5.70841026 -4.14512755 3.22521956 0 0 Z " transform="translate(625,566)" style="fill: #EAEFEE;"/><path d="M0 0 C-0.99 3.63 -1.98 7.26 -3 11 C-5.0625 8.6875 -5.0625 8.6875 -7 6 C-5.81636731 2.44910192 -3.99368042 0 0 0 Z " transform="translate(961,639)" style="fill: #EBF1F2;"/><path d="M0 0 C0 0.33 0 0.66 0 1 C1.65 1.33 3.3 1.66 5 2 C4.67 2.99 4.34 3.98 4 5 C4 4.34 4 3.68 4 3 C1.36 3 -1.28 3 -4 3 C-2.87465895 4.35618499 -2.87465895 4.35618499 0.0625 4.0625 C1.031875 4.041875 2.00125 4.02125 3 4 C3 4.33 3 4.66 3 5 C0.36 5.33 -2.28 5.66 -5 6 C-5 4.68 -5 3.36 -5 2 C-5.66 2 -6.32 2 -7 2 C-7 1.34 -7 0.68 -7 0 C-3.98968256 -0.93423645 -3.13349732 -1.04449911 0 0 Z " transform="translate(672,585)" style="fill: #022648;"/><path d="M0 0 C2.97 0.495 2.97 0.495 6 1 C5.01 2.65 4.02 4.3 3 6 C3.99 6.66 4.98 7.32 6 8 C4.34385343 8.38218767 2.67542976 8.71395102 1 9 C0 8 0 8 -0.09765625 6.15234375 C-0.06510417 4.1015625 -0.03255208 2.05078125 0 0 Z " transform="translate(420,662)" style="fill: #E7ECEF;"/><path d="M0 0 C0.12375 0.928125 0.12375 0.928125 0.25 1.875 C0.81258459 4.18437567 0.81258459 4.18437567 3.0625 5.25 C3.701875 5.4975 4.34125 5.745 5 6 C2 7 2 7 0.09765625 6.29296875 C-0.57394531 5.92816406 -1.24554687 5.56335938 -1.9375 5.1875 C-2.60652344 4.83042969 -3.27554688 4.47335937 -3.96484375 4.10546875 C-4.63644531 3.74066406 -5.30804687 3.37585938 -6 3 C-7.33101856 2.32872374 -8.66369057 1.66068095 -10 1 C-6.56484998 0.37542727 -3.50935186 0 0 0 Z " transform="translate(744,640)" style="fill: #E8EEEF;"/><path d="M0 0 C1.90389849 2.85584773 2.69462177 4.9311762 3.625 8.1875 C3.88539063 9.08855469 4.14578125 9.98960937 4.4140625 10.91796875 C4.60742188 11.60503906 4.80078125 12.29210937 5 13 C4.34 13.66 3.68 14.32 3 15 C0.9375 12.875 0.9375 12.875 -1 10 C-0.75 6.9375 -0.75 6.9375 0 4 C0 2.68 0 1.36 0 0 Z " transform="translate(938,616)" style="fill: #173859;"/><path d="M0 0 C0.58265625 0.22558594 1.1653125 0.45117188 1.765625 0.68359375 C1.765625 1.34359375 1.765625 2.00359375 1.765625 2.68359375 C1.146875 2.76609375 0.528125 2.84859375 -0.109375 2.93359375 C-2.41875067 3.49617834 -2.41875067 3.49617834 -3.484375 5.74609375 C-3.731875 6.38546875 -3.979375 7.02484375 -4.234375 7.68359375 C-4.894375 7.02359375 -5.554375 6.36359375 -6.234375 5.68359375 C-7.224375 5.68359375 -8.214375 5.68359375 -9.234375 5.68359375 C-8.16544282 4.64769037 -7.07859012 3.63025433 -5.984375 2.62109375 C-5.38109375 2.05261719 -4.7778125 1.48414063 -4.15625 0.8984375 C-2.234375 -0.31640625 -2.234375 -0.31640625 0 0 Z " transform="translate(329.234375,587.31640625)" style="fill: #E8ECED;"/><path d="M0 0 C4.05230132 2.84756309 6.2190937 5.34985578 8 10 C7.67 10.99 7.34 11.98 7 13 C5.0625 11.875 5.0625 11.875 3 10 C2.25 6.8125 2.25 6.8125 2 4 C1.34 4 0.68 4 0 4 C-0.33 3.01 -0.66 2.02 -1 1 C-0.67 0.67 -0.34 0.34 0 0 Z " transform="translate(659,570)" style="fill: #ECEFEE;"/><path d="M0 0 C1.65 0 3.3 0 5 0 C4.39009109 3.55780196 3.4216319 6.6828589 2 10 C1.34 10 0.68 10 0 10 C0 6.7 0 3.4 0 0 Z " transform="translate(314,593)" style="fill: #0F3152;"/><path d="M0 0 C1.72880982 -0.05449838 3.45812712 -0.09301688 5.1875 -0.125 C6.15042969 -0.14820313 7.11335937 -0.17140625 8.10546875 -0.1953125 C11.12812778 0.0086456 13.26769985 0.73125368 16 2 C16 2.99 16 3.98 16 5 C13.69 5 11.38 5 9 5 C9.33 3.68 9.66 2.36 10 1 C6.7 1 3.4 1 0 1 C0 0.67 0 0.34 0 0 Z " transform="translate(562,585)" style="fill: #E8EEEF;"/><path d="M0 0 C1.43655854 -0.08131463 2.8744483 -0.13933559 4.3125 -0.1875 C5.51326172 -0.23970703 5.51326172 -0.23970703 6.73828125 -0.29296875 C9.47851584 0.06198392 10.29171079 0.89366282 12 3 C11 4 11 4 7.4375 4.0625 C6.303125 4.041875 5.16875 4.02125 4 4 C3.67 3.34 3.34 2.68 3 2 C2.01 1.34 1.02 0.68 0 0 Z " transform="translate(562,593)" style="fill: #163556;"/><path d="M0 0 C2 1 2 1 4 4 C1.33333333 6.66666667 -1.33333333 9.33333333 -4 12 C-4.6875 10.25 -4.6875 10.25 -5 8 C-3.6875 5.75 -3.6875 5.75 -2 4 C-1.34 4 -0.68 4 0 4 C0 2.68 0 1.36 0 0 Z " transform="translate(420,586)" style="fill: #143655;"/><path d="M0 0 C0 0.33 0 0.66 0 1 C-1.35931641 1.03867187 -1.35931641 1.03867187 -2.74609375 1.078125 C-10.32284691 1.43090504 -16.36387812 2.22548623 -23 6 C-23.33 5.01 -23.66 4.02 -24 3 C-16.19436658 -0.90281671 -8.51207047 -0.27891493 0 0 Z " transform="translate(748,584)" style="fill: #132F4F;"/><path d="M0 0 C0.99 0 1.98 0 3 0 C3 0.66 3 1.32 3 2 C3.99 2.33 4.98 2.66 6 3 C5.67 3.99 5.34 4.98 5 6 C0.38 5.34 -4.24 4.68 -9 4 C-9 3.67 -9 3.34 -9 3 C-4.545 2.505 -4.545 2.505 0 2 C0 1.34 0 0.68 0 0 Z " transform="translate(901,589)" style="fill: #DEE3E7;"/><path d="M0 0 C0.33 0 0.66 0 1 0 C0.49202991 4.3177458 -0.19682779 8.03302114 -2 12 C-2.66 12 -3.32 12 -4 12 C-4 11.34 -4 10.68 -4 10 C-4.66 9.67 -5.32 9.34 -6 9 C-5.38125 8.443125 -4.7625 7.88625 -4.125 7.3125 C-1.93893621 4.93354822 -1.01214301 3.03642904 0 0 Z " transform="translate(462,658)" style="fill: #213E5E;"/><path d="M0 0 C0.33 0 0.66 0 1 0 C1 2.31 1 4.62 1 7 C-2.01490557 8.00496852 -4.04181692 8.10335303 -7.1875 8.0625 C-8.53908203 8.04896484 -8.53908203 8.04896484 -9.91796875 8.03515625 C-10.60503906 8.02355469 -11.29210937 8.01195312 -12 8 C-12 7.67 -12 7.34 -12 7 C-10.72125 6.9175 -9.4425 6.835 -8.125 6.75 C-5.94666582 6.54130069 -5.94666582 6.54130069 -4 6 C-2.4100567 4.07935207 -2.4100567 4.07935207 -2 2 C-1.34 2 -0.68 2 0 2 C0 1.34 0 0.68 0 0 Z " transform="translate(706,641)" style="fill: #D6DFE5;"/><path d="M0 0 C1.32 0.66 2.64 1.32 4 2 C2.68 4.97 1.36 7.94 0 11 C-0.99 10.67 -1.98 10.34 -3 10 C-2.67 8.68 -2.34 7.36 -2 6 C-1.34 6.33 -0.68 6.66 0 7 C-0.185625 6.030625 -0.37125 5.06125 -0.5625 4.0625 C-0.706875 3.051875 -0.85125 2.04125 -1 1 C-0.67 0.67 -0.34 0.34 0 0 Z " transform="translate(476,616)" style="fill: #0D3052;"/><path d="M0 0 C1.33333333 0 2.66666667 0 4 0 C4.33 2.97 4.66 5.94 5 9 C2 8 2 8 0 5 C-0.66 5 -1.32 5 -2 5 C-1.34 3.35 -0.68 1.7 0 0 Z " transform="translate(941,612)" style="fill: #FCFDFC;"/><path d="M0 0 C3.01111938 4.51667907 3.10067926 7.6639991 3 13 C2.01 13 1.02 13 0 13 C-1.0161692 8.37078475 -0.83796731 4.65537393 0 0 Z " transform="translate(946,638)" style="fill: #1A3A59;"/><path d="M0 0 C0.33 0 0.66 0 1 0 C1.33 3.63 1.66 7.26 2 11 C-1 11 -1 11 -4 9 C-3.34 7.68 -2.68 6.36 -2 5 C-1.34 5 -0.68 5 0 5 C0 3.35 0 1.7 0 0 Z " transform="translate(726,626)" style="fill: #D9DFE2;"/><path d="M0 0 C2.9375 0.8125 2.9375 0.8125 6 2 C6.33 2.99 6.66 3.98 7 5 C4.69 5.33 2.38 5.66 0 6 C-0.38218767 4.34385343 -0.71395102 2.67542976 -1 1 C-0.67 0.67 -0.34 0.34 0 0 Z " transform="translate(641,609)" style="fill: #0D3156;"/><path d="M0 0 C0 0.99 0 1.98 0 3 C-4 3 -4 3 -7 2 C-7.33 2.33 -7.66 2.66 -8 3 C-10.0625 2.5625 -10.0625 2.5625 -12 2 C-7.72424275 -1.23921004 -5.16347713 -1.11369115 0 0 Z " transform="translate(408,596)" style="fill: #103455;"/><path d="M0 0 C3.6875 1.375 3.6875 1.375 7 3 C6.34 3.66 5.68 4.32 5 5 C2.375 4.625 2.375 4.625 0 4 C0 4.66 0 5.32 0 6 C-0.99 6 -1.98 6 -3 6 C-3 4.68 -3 3.36 -3 2 C-2.01 1.34 -1.02 0.68 0 0 Z " transform="translate(443,593)" style="fill: #0E3355;"/><path d="M0 0 C1.65 0.33 3.3 0.66 5 1 C5 2.32 5 3.64 5 5 C1.37 5.33 -2.26 5.66 -6 6 C-6 5.67 -6 5.34 -6 5 C-4.35 5 -2.7 5 -1 5 C-0.67 3.35 -0.34 1.7 0 0 Z " transform="translate(939,672)" style="fill: #103759;"/><path d="M0 0 C4.29 0 8.58 0 13 0 C12.67 0.66 12.34 1.32 12 2 C9.36 2 6.72 2 4 2 C3.34 3.32 2.68 4.64 2 6 C1.34 6 0.68 6 0 6 C-1.125 2.25 -1.125 2.25 0 0 Z " transform="translate(891,649)" style="fill: #072A49;"/><path d="M0 0 C1.32 0.66 2.64 1.32 4 2 C4 2.99 4 3.98 4 5 C2.02 5.99 2.02 5.99 0 7 C0 6.34 0 5.68 0 5 C-0.66 4.67 -1.32 4.34 -2 4 C-1.34 2.68 -0.68 1.36 0 0 Z " transform="translate(447,639)" style="fill: #F6FAF8;"/><path d="M0 0 C0.66 0 1.32 0 2 0 C3.0625 1.8125 3.0625 1.8125 4 4 C3.67 4.99 3.34 5.98 3 7 C2.34 7 1.68 7 1 7 C0.67 7.99 0.34 8.98 0 10 C-1.125 8.375 -1.125 8.375 -2 6 C-1.125 2.75 -1.125 2.75 0 0 Z " transform="translate(274,628)" style="fill: #103356;"/><path d="M0 0 C3.3 0.33 6.6 0.66 10 1 C10 1.33 10 1.66 10 2 C7.36 2 4.72 2 2 2 C2 6.62 2 11.24 2 16 C1.67 16 1.34 16 1 16 C0.67 10.72 0.34 5.44 0 0 Z " transform="translate(778,584)" style="fill: #0A2B4B;"/><path d="M0 0 C-0.66 0 -1.32 0 -2 0 C-2 0.66 -2 1.32 -2 2 C-1.34 2.33 -0.68 2.66 0 3 C-2.25 3.75 -2.25 3.75 -5 4 C-7.3125 2.0625 -7.3125 2.0625 -9 0 C-5.62182575 -0.84454356 -3.32534757 -1.10844919 0 0 Z " transform="translate(431,642)" style="fill: #E9EEED;"/><path d="M0 0 C0.66 0.33 1.32 0.66 2 1 C2.33333333 2.33333333 2.66666667 3.66666667 3 5 C3.66 5.33 4.32 5.66 5 6 C5.66666667 7.33333333 6.33333333 8.66666667 7 10 C7.66 10.33 8.32 10.66 9 11 C8.67 11.66 8.34 12.32 8 13 C3.08029436 9.39221586 1.03059135 6.75334215 -1 1 C-0.67 0.67 -0.34 0.34 0 0 Z " transform="translate(326,627)" style="fill: #183555;"/><path d="M0 0 C2.0625 0.4375 2.0625 0.4375 4 1 C4 5 4 5 2 8 C1.01 6.68 0.02 5.36 -1 4 C-1.99 4.495 -1.99 4.495 -3 5 C-1.125 1.125 -1.125 1.125 0 0 Z " transform="translate(622,631)" style="fill: #FCFCFB;"/><path d="M0 0 C3.3 0 6.6 0 10 0 C10 0.66 10 1.32 10 2 C6.04 3.98 6.04 3.98 2 6 C2 5.01 2 4.02 2 3 C1.34 2.67 0.68 2.34 0 2 C0 1.34 0 0.68 0 0 Z " transform="translate(481,585)" style="fill: #113250;"/><path d="M0 0 C0.99 0.33 1.98 0.66 3 1 C3.73046875 2.84765625 3.73046875 2.84765625 4.1875 5.0625 C4.34605469 5.79597656 4.50460937 6.52945313 4.66796875 7.28515625 C4.83232422 8.13400391 4.83232422 8.13400391 5 9 C4.01 9.33 3.02 9.66 2 10 C0.68373308 6.38026598 0 3.90432869 0 0 Z " transform="translate(411,626)" style="fill: #1B3C59;"/><path d="M0 0 C0.33 0.99 0.66 1.98 1 3 C0.01 4.485 0.01 4.485 -1 6 C-3.625 6.1875 -3.625 6.1875 -6 6 C-6 4.68 -6 3.36 -6 2 C-2.25 0 -2.25 0 0 0 Z " transform="translate(502,611)" style="fill: #FBFDFB;"/><path d="M0 0 C0.66 0 1.32 0 2 0 C2 0.66 2 1.32 2 2 C3.32 1.67 4.64 1.34 6 1 C5.6875 3.375 5.6875 3.375 5 6 C3.515 6.99 3.515 6.99 2 8 C1.34 5.36 0.68 2.72 0 0 Z " transform="translate(944,603)" style="fill: #113354;"/><path d="M0 0 C-0.57584432 2.38564077 -1.22227595 4.66682784 -2 7 C-1.34 7.33 -0.68 7.66 0 8 C-1.65 7.67 -3.3 7.34 -5 7 C-4.625 4.0625 -4.625 4.0625 -4 1 C-2 0 -2 0 0 0 Z " transform="translate(721,592)" style="fill: #143552;"/><path d="M0 0 C0.66 0.66 1.32 1.32 2 2 C1.01 4.97 0.02 7.94 -1 11 C-3.29633824 7.55549263 -3.54016485 5.06187717 -4 1 C-3.67 1.99 -3.34 2.98 -3 4 C-2.01 4 -1.02 4 0 4 C0 2.68 0 1.36 0 0 Z " transform="translate(266,619)" style="fill: #193656;"/><path d="M0 0 C2.5654594 2.5654594 2.54046087 4.47686668 3 8 C1.68 8.33 0.36 8.66 -1 9 C-2 3.25 -2 3.25 -2 1 C-1.34 0.67 -0.68 0.34 0 0 Z " transform="translate(909,599)" style="fill: #143858;"/><path d="M0 0 C0 0.99 0 1.98 0 3 C0.66 3 1.32 3 2 3 C2 4.65 2 6.3 2 8 C1.01 8 0.02 8 -1 8 C-1.66 5.69 -2.32 3.38 -3 1 C-2 0 -2 0 0 0 Z " transform="translate(764,592)" style="fill: #133254;"/><path d="M0 0 C1.90318884 2.85478326 2.4619099 4.41941308 3.125 7.6875 C3.29257813 8.49574219 3.46015625 9.30398438 3.6328125 10.13671875 C3.75398437 10.75160156 3.87515625 11.36648438 4 12 C2.68 11.34 1.36 10.68 0 10 C0 6.7 0 3.4 0 0 Z " transform="translate(238,574)" style="fill: #26415B;"/><path d="M0 0 C0.66 0.33 1.32 0.66 2 1 C2.40729228 3.32156597 2.74438677 5.6568787 3 8 C0 8 0 8 -1.6875 6.5 C-2.120625 6.005 -2.55375 5.51 -3 5 C-2.67 4.34 -2.34 3.68 -2 3 C-1.34 3 -0.68 3 0 3 C0 2.01 0 1.02 0 0 Z " transform="translate(658,561)" style="fill: #113758;"/><path d="M0 0 C2.375 -0.1875 2.375 -0.1875 5 0 C5.66 0.99 6.32 1.98 7 3 C0.71428571 5.42857143 0.71428571 5.42857143 -3 4 C-2.01 4 -1.02 4 0 4 C0 2.68 0 1.36 0 0 Z " transform="translate(423,657)" style="fill: #0E345C;"/><path d="M0 0 C1.134375 0.020625 2.26875 0.04125 3.4375 0.0625 C3.4375 0.7225 3.4375 1.3825 3.4375 2.0625 C-1.5125 3.5475 -1.5125 3.5475 -6.5625 5.0625 C-4.06692478 0.07134956 -4.06692478 0.07134956 0 0 Z " transform="translate(493.5625,595.9375)" style="fill: #153656;"/><path d="M0 0 C1.32 0.66 2.64 1.32 4 2 C4 2.66 4 3.32 4 4 C3.34 4 2.68 4 2 4 C2 4.66 2 5.32 2 6 C3.65 6 5.3 6 7 6 C7 6.33 7 6.66 7 7 C4.69 7 2.38 7 0 7 C-1.125 2.25 -1.125 2.25 0 0 Z " transform="translate(330,647)" style="fill: #083056;"/><path d="M0 0 C0.66 0 1.32 0 2 0 C2 1.65 2 3.3 2 5 C2.66 5.33 3.32 5.66 4 6 C2.68 6.33 1.36 6.66 0 7 C-0.66 6.01 -1.32 5.02 -2 4 C-1.34 2.68 -0.68 1.36 0 0 Z " transform="translate(699,634)" style="fill: #163A5A;"/><path d="M0 0 C2 1 2 1 4 4 C-0.75 7 -0.75 7 -3 7 C-3 6.01 -3 5.02 -3 4 C-2.34 3.67 -1.68 3.34 -1 3 C-1.33 2.34 -1.66 1.68 -2 1 C-1.34 0.67 -0.68 0.34 0 0 Z " transform="translate(446,633)" style="fill: #173758;"/><path d="M0 0 C1.5 1.25 1.5 1.25 3 3 C3 4.32 3 5.64 3 7 C1.35 6.67 -0.3 6.34 -2 6 C-1.34 4.02 -0.68 2.04 0 0 Z " transform="translate(251,593)" style="fill: #FBFBF9;"/><path d="M0 0 C2 3 2 3 2 5 C2.66 5 3.32 5 4 5 C3.67 5.66 3.34 6.32 3 7 C1.02 6.34 -0.96 5.68 -3 5 C-1.125 1.125 -1.125 1.125 0 0 Z " transform="translate(754,641)" style="fill: #1D3957;"/><path d="M0 0 C0.66 0.66 1.32 1.32 2 2 C1.360625 2.556875 0.72125 3.11375 0.0625 3.6875 C-2.19680987 6.22066561 -2.63149047 7.68341424 -3 11 C-3.33 11 -3.66 11 -4 11 C-4.125 4.375 -4.125 4.375 -3 1 C-2.01 0.67 -1.02 0.34 0 0 Z " transform="translate(479,623)" style="fill: #D6DEE3;"/><path d="M0 0 C3 2 3 2 5 5 C1.86650268 6.04449911 1.01031744 5.93423645 -2 5 C-1.34 3.35 -0.68 1.7 0 0 Z " transform="translate(479,619)" style="fill: #E8ECEC;"/><path d="M0 0 C0.94875 0.04125 1.8975 0.0825 2.875 0.125 C2.545 1.115 2.215 2.105 1.875 3.125 C-0.6875 4.3125 -0.6875 4.3125 -3.125 5.125 C-3.125 4.465 -3.125 3.805 -3.125 3.125 C-3.785 2.795 -4.445 2.465 -5.125 2.125 C-3.125 0.125 -3.125 0.125 0 0 Z " transform="translate(727.125,609.875)" style="fill: #113356;"/><path d="M0 0 C1.65 0.33 3.3 0.66 5 1 C0.25 5.875 0.25 5.875 -2 7 C-1.125 2.25 -1.125 2.25 0 0 Z " transform="translate(793,594)" style="fill: #E2E9E9;"/><path d="M0 0 C0.99 0.66 1.98 1.32 3 2 C0.03 3.65 -2.94 5.3 -6 7 C-6 6.01 -6 5.02 -6 4 C-4.68 3.67 -3.36 3.34 -2 3 C-2 2.34 -2 1.68 -2 1 C-1.34 0.67 -0.68 0.34 0 0 Z " transform="translate(798,584)" style="fill: #173453;"/><path d="M0 0 C0.66 0.33 1.32 0.66 2 1 C2.73075648 3.3140622 3.40138258 5.64828869 4 8 C2.02 7.34 0.04 6.68 -2 6 C-1.34 4.02 -0.68 2.04 0 0 Z " transform="translate(613,588)" style="fill: #163759;"/><path d="M0 0 C1.65 0 3.3 0 5 0 C4.34 1.98 3.68 3.96 3 6 C2.01 6 1.02 6 0 6 C-1.125 2.25 -1.125 2.25 0 0 Z " transform="translate(611,576)" style="fill: #0B3155;"/><path d="M0 0 C0.99 0.66 1.98 1.32 3 2 C3 2.66 3 3.32 3 4 C-3.52307692 4.36923077 -3.52307692 4.36923077 -5.9375 2.5 C-6.4634375 1.7575 -6.4634375 1.7575 -7 1 C-5.5459375 1.0309375 -5.5459375 1.0309375 -4.0625 1.0625 C-1.12534105 1.35618499 -1.12534105 1.35618499 0 0 Z " transform="translate(450,664)" style="fill: #FDFCFB;"/><path d="M0 0 C0 3.20395416 -0.74335022 5.09399739 -2 8 C-3.32 7.67 -4.64 7.34 -6 7 C-4.77065985 3.31197956 -3.06140622 2.27643027 0 0 Z " transform="translate(666,640)" style="fill: #1A3B5A;"/><path d="M0 0 C0.99 1.32 1.98 2.64 3 4 C1 6 1 6 -1.625 6.125 C-2.40875 6.08375 -3.1925 6.0425 -4 6 C-2.84826645 3.53199953 -1.95216435 1.95216435 0 0 Z " transform="translate(513,641)" style="fill: #1C3858;"/><path d="M0 0 C1.5625 1.6875 1.5625 1.6875 3 4 C2.6875 6.75 2.6875 6.75 2 9 C1.01 9 0.02 9 -1 9 C-0.67 6.03 -0.34 3.06 0 0 Z " transform="translate(957,622)" style="fill: #EAF0EF;"/><path d="M0 0 C1.98 0.66 3.96 1.32 6 2 C5.67 2.99 5.34 3.98 5 5 C4.01 4.67 3.02 4.34 2 4 C1.01 4 0.02 4 -1 4 C-0.67 2.68 -0.34 1.36 0 0 Z " transform="translate(395,589)" style="fill: #F7F9F8;"/><path d="M0 0 C1.32 0 2.64 0 4 0 C4 3.3 4 6.6 4 10 C1.81024227 6.71536341 1.00193437 3.79303725 0 0 Z " transform="translate(928,586)" style="fill: #ECF0F3;"/><path d="M0 0 C0 0.99 0 1.98 0 3 C-2.375 3.1875 -2.375 3.1875 -5 3 C-5.66 2.01 -6.32 1.02 -7 0 C-3.86650268 -1.04449911 -3.01031744 -0.93423645 0 0 Z " transform="translate(436,586)" style="fill: #E7EBEA;"/><path d="M0 0 C2.64 0 5.28 0 8 0 C8.33 0.99 8.66 1.98 9 3 C9.66 3.33 10.32 3.66 11 4 C10.67 4.66 10.34 5.32 10 6 C6.59244728 4.07119658 3.25852365 2.1723491 0 0 Z " transform="translate(347,585)" style="fill: #1F3B5A;"/><path d="M0 0 C0 0.66 0 1.32 0 2 C-1.98 2.99 -3.96 3.98 -6 5 C-6.33 3.68 -6.66 2.36 -7 1 C-4.53721199 -0.231394 -2.7204945 -0.07159196 0 0 Z " transform="translate(627,564)" style="fill: #153459;"/><path d="M0 0 C2.33333333 0 4.66666667 0 7 0 C6.67 1.65 6.34 3.3 6 5 C4.02 4.01 2.04 3.02 0 2 C0 1.34 0 0.68 0 0 Z " transform="translate(937,657)" style="fill: #0E345A;"/><path d="M0 0 C1 3 1 3 1 6 C-0.32 6.33 -1.64 6.66 -3 7 C-3.66 6.01 -4.32 5.02 -5 4 C-3.35 2.68 -1.7 1.36 0 0 Z " transform="translate(358,641)" style="fill: #183858;"/><path d="M0 0 C0 1.65 0 3.3 0 5 C-2.31 5.33 -4.62 5.66 -7 6 C-1 0 -1 0 0 0 Z " transform="translate(454,641)" style="fill: #1C3B58;"/><path d="M0 0 C1.32 1.32 2.64 2.64 4 4 C3.67 4.66 3.34 5.32 3 6 C1.0625 5.1875 1.0625 5.1875 -1 4 C-1.33 3.01 -1.66 2.02 -2 1 C-1.34 0.67 -0.68 0.34 0 0 Z " transform="translate(689,641)" style="fill: #E8ECEE;"/><path d="M0 0 C0.99 0.33 1.98 0.66 3 1 C3 2.98 3 4.96 3 7 C1.68 6.67 0.36 6.34 -1 6 C-1.042721 4.33388095 -1.04063832 2.66617115 -1 1 C-0.67 0.67 -0.34 0.34 0 0 Z " transform="translate(658,623)" style="fill: #163A5A;"/><path d="M0 0 C1.5 1.25 1.5 1.25 3 3 C3 4.32 3 5.64 3 7 C3.66 7 4.32 7 5 7 C4.67 7.99 4.34 8.98 4 10 C0.06153846 5.69230769 0.06153846 5.69230769 -0.25 2.1875 C-0.1675 1.465625 -0.085 0.74375 0 0 Z " transform="translate(270,613)" style="fill: #FCFCF8;"/><path d="M0 0 C1.24546405 2.49092811 0.7767578 3.41080733 0 6 C0.66 6 1.32 6 2 6 C2 6.66 2 7.32 2 8 C0.35 8.66 -1.3 9.32 -3 10 C-2.69201674 8.51988629 -2.378482 7.04092675 -2.0625 5.5625 C-1.80146484 4.32693359 -1.80146484 4.32693359 -1.53515625 3.06640625 C-1 1 -1 1 0 0 Z " transform="translate(426,600)" style="fill: #244563;"/><path d="M0 0 C-0.66 0 -1.32 0 -2 0 C-2 0.66 -2 1.32 -2 2 C-1.34 2.33 -0.68 2.66 0 3 C-0.66 3.66 -1.32 4.32 -2 5 C-4 3.625 -4 3.625 -6 2 C-6 1.34 -6 0.68 -6 0 C-3.50907189 -1.24546405 -2.58919267 -0.7767578 0 0 Z " transform="translate(664,603)" style="fill: #13345A;"/><path d="M0 0 C0.99 0.495 0.99 0.495 2 1 C2.6328125 3.50390625 2.6328125 3.50390625 3.125 6.5625 C3.29257813 7.57441406 3.46015625 8.58632813 3.6328125 9.62890625 C3.75398437 10.41136719 3.87515625 11.19382812 4 12 C3.34 12 2.68 12 2 12 C0.00214565 7.8794254 -0.17835515 4.54805635 0 0 Z " transform="translate(240,585)" style="fill: #03294C;"/><path d="M0 0 C0.99 0 1.98 0 3 0 C3.33 0.99 3.66 1.98 4 3 C2.0625 5.6875 2.0625 5.6875 0 8 C-0.98120464 4.94736336 -0.98120464 3.05263664 0 0 Z " transform="translate(278,584)" style="fill: #EAEDED;"/><path d="M0 0 C-0.33 0.99 -0.66 1.98 -1 3 C-2.65 3 -4.3 3 -6 3 C-6 2.01 -6 1.02 -6 0 C-3 -1 -3 -1 0 0 Z " transform="translate(657,648)" style="fill: #183959;"/><path d="M0 0 C0.2475 0.5775 0.495 1.155 0.75 1.75 C2.16683317 4.3002997 3.87627537 6.01785701 6 8 C4.125 8.625 4.125 8.625 2 9 C0 7 0 7 -0.125 3.375 C-0.08375 2.26125 -0.0425 1.1475 0 0 Z " transform="translate(686,640)" style="fill: #1F3B59;"/><path d="M0 0 C1.32 0.66 2.64 1.32 4 2 C4 2.99 4 3.98 4 5 C1.13275314 4.42655063 0.1385485 4.1385485 -2 2 C-1.34 1.34 -0.68 0.68 0 0 Z " transform="translate(915,642)" style="fill: #1B3E61;"/><path d="M0 0 C1.32 0.33 2.64 0.66 4 1 C3.34 2.32 2.68 3.64 2 5 C0.35 5 -1.3 5 -3 5 C-3.33 4.34 -3.66 3.68 -4 3 C-2.68 3 -1.36 3 0 3 C0 2.01 0 1.02 0 0 Z " transform="translate(761,642)" style="fill: #F9FCFA;"/><path d="M0 0 C0.66 0 1.32 0 2 0 C1.875 1.8125 1.875 1.8125 1 4 C-2.0625 5.75 -2.0625 5.75 -5 7 C-4.6875 5.0625 -4.6875 5.0625 -4 3 C-3.01 2.67 -2.02 2.34 -1 2 C-0.67 1.34 -0.34 0.68 0 0 Z " transform="translate(355,640)" style="fill: #EBEFF2;"/><path d="M0 0 C1.32 0 2.64 0 4 0 C3.34 1.65 2.68 3.3 2 5 C0.02 4.34 -1.96 3.68 -4 3 C-2.68 2.67 -1.36 2.34 0 2 C0 1.34 0 0.68 0 0 Z " transform="translate(651,609)" style="fill: #E3E5E9;"/><path d="M0 0 C1.32 0.99 2.64 1.98 4 3 C3.67 4.65 3.34 6.3 3 8 C2.34 8 1.68 8 1 8 C-1.125 3.375 -1.125 3.375 0 0 Z " transform="translate(267,606)" style="fill: #0F3154;"/><path d="M0 0 C3 1 3 1 5 3 C5.99 3.33 6.98 3.66 8 4 C7.67 4.66 7.34 5.32 7 6 C4.0625 5.25 4.0625 5.25 1 4 C0.125 1.875 0.125 1.875 0 0 Z " transform="translate(447,591)" style="fill: #F6F8F2;"/><path d="M0 0 C3.0831351 1.19899698 6.06279492 2.47700477 9 4 C9 4.66 9 5.32 9 6 C4.64464931 4.83857315 2.35380297 3.92300495 0 0 Z " transform="translate(627,590)" style="fill: #1A3951;"/><path d="M0 0 C0.99 0.33 1.98 0.66 3 1 C3.73046875 2.84765625 3.73046875 2.84765625 4.1875 5.0625 C4.34605469 5.79597656 4.50460938 6.52945313 4.66796875 7.28515625 C4.83232422 8.13400391 4.83232422 8.13400391 5 9 C4.34 8.67 3.68 8.34 3 8 C3 7.01 3 6.02 3 5 C2.01 5 1.02 5 0 5 C0 3.35 0 1.7 0 0 Z " transform="translate(249,587)" style="fill: #E5E7EB;"/><path d="M0 0 C2.97 0.495 2.97 0.495 6 1 C4 4 4 4 1.875 4.6875 C1.25625 4.790625 0.6375 4.89375 0 5 C-1 2 -1 2 0 0 Z " transform="translate(978,586)" style="fill: #0F3358;"/><path d="M0 0 C0.33 1.32 0.66 2.64 1 4 C-0.8125 4.6875 -0.8125 4.6875 -3 5 C-4.75 3.5625 -4.75 3.5625 -6 2 C-4.02 1.34 -2.04 0.68 0 0 Z " transform="translate(886,638)" style="fill: #FDFDFB;"/><path d="M0 0 C1.32 0.66 2.64 1.32 4 2 C3.34 3.65 2.68 5.3 2 7 C1.01 6.34 0.02 5.68 -1 5 C-0.34 5 0.32 5 1 5 C0.67 3.35 0.34 1.7 0 0 Z " transform="translate(917,632)" style="fill: #D8E1E2;"/><path d="M0 0 C0.66 0.99 1.32 1.98 2 3 C2.99 3.33 3.98 3.66 5 4 C4.01 4.495 4.01 4.495 3 5 C2.67 5.99 2.34 6.98 2 8 C0.4375 5.6875 0.4375 5.6875 -1 3 C-0.67 2.01 -0.34 1.02 0 0 Z " transform="translate(426,629)" style="fill: #1C3A55;"/><path d="M0 0 C1.74627478 2.61941217 2.38722388 4.03824877 3 7 C1.68 7 0.36 7 -1 7 C-1.04254356 5.00045254 -1.04080783 2.99958364 -1 1 C-0.67 0.67 -0.34 0.34 0 0 Z " transform="translate(946,611)" style="fill: #E5ECEB;"/><path d="M0 0 C2 4 2 4 1.125 6.75 C0.75375 7.4925 0.3825 8.235 0 9 C-0.66 9 -1.32 9 -2 9 C-1.34 6.03 -0.68 3.06 0 0 Z " transform="translate(274,598)" style="fill: #DEE7EB;"/><path d="M0 0 C0.66 0.33 1.32 0.66 2 1 C2.625 3.0625 2.625 3.0625 3 5 C0.69 4.34 -1.62 3.68 -4 3 C-2.68 2.01 -1.36 1.02 0 0 Z " transform="translate(434,593)" style="fill: #183C5B;"/><path d="M0 0 C0 0.99 0 1.98 0 3 C-1.98 3.66 -3.96 4.32 -6 5 C-6 4.01 -6 3.02 -6 2 C-2.25 0 -2.25 0 0 0 Z " transform="translate(738,593)" style="fill: #1B3A57;"/><path d="M0 0 C1.70884005 1.62339805 3.37446717 3.29319053 5 5 C5 5.66 5 6.32 5 7 C2.525 6.01 2.525 6.01 0 5 C0 3.35 0 1.7 0 0 Z " transform="translate(580,589)" style="fill: #D8DFE3;"/><path d="M0 0 C0.94875 0.04125 1.8975 0.0825 2.875 0.125 C2.215 1.445 1.555 2.765 0.875 4.125 C-1.105 3.465 -3.085 2.805 -5.125 2.125 C-3.125 0.125 -3.125 0.125 0 0 Z " transform="translate(335.125,584.875)" style="fill: #E9ECEF;"/><path d="M0 0 C3.625 0.375 3.625 0.375 7 1 C6.01 2.32 5.02 3.64 4 5 C2.02 4.01 0.04 3.02 -2 2 C-1.34 1.34 -0.68 0.68 0 0 Z " transform="translate(909,585)" style="fill: #183759;"/><path d="M0 0 C0.33 0.66 0.66 1.32 1 2 C1.66 2.33 2.32 2.66 3 3 C1.75 4.5625 1.75 4.5625 0 6 C-2.1875 5.6875 -2.1875 5.6875 -4 5 C-2.68 4.34 -1.36 3.68 0 3 C0 2.01 0 1.02 0 0 Z " transform="translate(908,632)" style="fill: #193756;"/><path d="M0 0 C0.66 1.32 1.32 2.64 2 4 C1.01 5.485 1.01 5.485 0 7 C-0.99 6.67 -1.98 6.34 -3 6 C-2.01 4.02 -1.02 2.04 0 0 Z " transform="translate(393,601)" style="fill: #183959;"/><path d="M0 0 C1.32 0.33 2.64 0.66 4 1 C4 1.99 4 2.98 4 4 C3.01 3.67 2.02 3.34 1 3 C0.67 2.01 0.34 1.02 0 0 Z M1 4 C1.33 5.32 1.66 6.64 2 8 C0 7 0 7 -1 5 C-0.34 4.67 0.32 4.34 1 4 Z " transform="translate(330,587)" style="fill: #FBFDFB;"/><path d="M0 0 C2.1640625 0.0234375 2.1640625 0.0234375 4.625 0.375 C5.85089844 0.54128906 5.85089844 0.54128906 7.1015625 0.7109375 C7.72804688 0.80632813 8.35453125 0.90171875 9 1 C9 1.33 9 1.66 9 2 C7.35 2 5.7 2 4 2 C3.67 2.66 3.34 3.32 3 4 C0.525 3.01 0.525 3.01 -2 2 C-1.34 1.34 -0.68 0.68 0 0 Z " transform="translate(632,572)" style="fill: #12395A;"/></svg>