<svg id="svg" version="1.1" xmlns="http://www.w3.org/2000/svg" style="display: block;" viewBox="0 0 351 283"><path d="M0 0 C115.83 0 231.66 0 351 0 C351 93.39 351 186.78 351 283 C235.17 283 119.34 283 0 283 C0 189.61 0 96.22 0 0 Z " transform="translate(0,0)" style="fill: #012147;"/><path d="M0 0 C1.13099121 0.60626221 2.26198242 1.21252441 3.42724609 1.8371582 C4.36494843 2.33732452 4.36494843 2.33732452 5.32159424 2.84759521 C7.36700646 3.93998767 9.40881894 5.03893251 11.45068359 6.13793945 C12.89332831 6.90992839 14.33620284 7.68148802 15.77929688 8.45263672 C19.44211839 10.41133583 23.10206832 12.37532898 26.76098633 14.34130859 C30.9558532 16.59474127 35.15351228 18.84296614 39.35058594 21.09228516 C41.60119995 22.29861558 43.85152121 23.5054923 46.1015625 24.71289062 C54.60238693 29.27105208 63.12257842 33.7918261 71.64996338 38.30007935 C78.04347681 41.6804969 84.43492236 45.06482222 90.82568359 48.45043945 C91.52113281 48.81878906 92.21658203 49.18713867 92.93310547 49.56665039 C96.94784438 51.69375111 100.96036739 53.82493355 104.96972656 55.9621582 C106.19722993 56.61579325 107.42541037 57.26815853 108.65429688 57.91918945 C110.33824697 58.81159469 112.01953898 59.70901033 113.70068359 60.60668945 C114.64685547 61.11006836 115.59302734 61.61344727 116.56787109 62.13208008 C118.82568359 63.45043945 118.82568359 63.45043945 120.82568359 65.45043945 C91.12568359 65.45043945 61.42568359 65.45043945 30.82568359 65.45043945 C29.83568359 60.83043945 28.84568359 56.21043945 27.82568359 51.45043945 C22.69106936 40.93670555 15.42357626 33.46756007 4.32958984 29.30200195 C-5.96020493 26.80124916 -16.99567971 27.08918207 -26.56494141 31.8605957 C-36.01819347 37.62028671 -41.53039299 45.01753969 -45.17431641 55.45043945 C-45.50431641 58.75043945 -45.83431641 62.05043945 -46.17431641 65.45043945 C-75.87431641 65.45043945 -105.57431641 65.45043945 -136.17431641 65.45043945 C-132.46565698 62.48351191 -129.66773372 60.50513011 -125.55322266 58.41918945 C-123.91981934 57.58363525 -123.91981934 57.58363525 -122.25341797 56.73120117 C-121.09293945 56.1435498 -119.93246094 55.55589844 -118.73681641 54.95043945 C-116.28308034 53.69634253 -113.83192961 52.43724937 -111.38134766 51.17700195 C-110.76742157 50.86167511 -110.15349548 50.54634827 -109.52096558 50.22146606 C-103.93839027 47.34617306 -98.42378703 44.35587323 -92.92431641 41.32543945 C-85.5558297 37.27025406 -78.14190394 33.32012737 -70.67431641 29.45043945 C-63.23342774 25.59217774 -55.83792289 21.66463449 -48.48681641 17.63793945 C-47.61025391 17.1608252 -46.73369141 16.68371094 -45.83056641 16.19213867 C-41.10071657 13.61491184 -36.38723272 11.01217285 -31.69535828 8.36659241 C-29.15472814 6.93908041 -26.6049636 5.52841435 -24.05355835 4.12026978 C-22.80971468 3.42871136 -21.56988472 2.72987949 -20.3343811 2.02352905 C-18.60400462 1.03527607 -16.85813139 0.07430961 -15.11181641 -0.88549805 C-14.11021484 -1.4480127 -13.10861328 -2.01052734 -12.07666016 -2.59008789 C-7.29753719 -4.16999647 -4.33654416 -2.11690861 0 0 Z " transform="translate(181.17431640625,105.549560546875)" style="fill: #FCFCFD;"/><path d="M0 0 C1.23171122 0.65125456 2.45854067 1.31179956 3.68115234 1.97998047 C4.35104187 2.33721695 5.0209314 2.69445343 5.71112061 3.06251526 C7.90084648 4.23271944 10.0838936 5.41483344 12.26708984 6.59716797 C13.80003764 7.41931843 15.33340896 8.24067967 16.8671875 9.0612793 C19.98023638 10.72856879 23.09065064 12.40061436 26.19873047 14.07714844 C30.1698759 16.21909488 34.14660388 18.35037424 38.12646484 20.47607422 C43.8340271 23.52613025 49.53721779 26.58423335 55.23876953 29.64550781 C61.03790619 32.75807169 66.84018479 35.86476852 72.64208984 38.97216797 C74.95590402 40.21172873 77.26970609 41.45131209 79.58349609 42.69091797 C83.81400228 44.95728169 88.0446456 47.22338887 92.27548218 49.48913574 C94.77622356 50.82837682 97.27690764 52.16772485 99.77758789 53.50708008 C101.50775722 54.43369698 103.23800771 55.36016232 104.96826172 56.28662109 C106.5837793 57.1519043 106.5837793 57.1519043 108.23193359 58.03466797 C109.81687622 58.8746936 109.81687622 58.8746936 111.43383789 59.73168945 C113.64478151 60.93112763 115.83299689 62.17310381 118.00073242 63.44897461 C124.72911316 67.33845903 129.65900156 69.51964091 137.45458984 68.90966797 C138.65438477 68.86229492 138.65438477 68.86229492 139.87841797 68.81396484 C141.80132866 68.7333638 143.72228369 68.60791184 145.64208984 68.47216797 C145.97208984 69.79216797 146.30208984 71.11216797 146.64208984 72.47216797 C45.33208984 72.47216797 -55.97791016 72.47216797 -160.35791016 72.47216797 C-160.02791016 71.15216797 -159.69791016 69.83216797 -159.35791016 68.47216797 C-157.9521875 68.69839844 -157.9521875 68.69839844 -156.51806641 68.92919922 C-142.44291758 70.43007422 -132.32366526 64.0823326 -120.43896484 57.24169922 C-116.78863435 55.1452178 -113.09724891 53.13346823 -109.39526367 51.13012695 C-106.72227039 49.68255889 -104.0576205 48.22036026 -101.39306641 46.75732422 C-94.20624394 42.82894943 -86.96938267 38.99551793 -79.73291016 35.15966797 C-76.97764484 33.6988379 -74.22242626 32.23791977 -71.46728516 30.77685547 C-70.78615158 30.41566116 -70.10501801 30.05446686 -69.40324402 29.68232727 C-63.7478809 26.68201869 -58.09961112 23.66862904 -52.45654297 20.64526367 C-50.16010055 19.41521112 -47.86259105 18.18714845 -45.56396484 16.96118164 C-40.31134608 14.15462052 -35.07390519 11.32674605 -29.87832642 8.4160614 C-28.07260729 7.40535957 -26.26343594 6.40113168 -24.453125 5.39868164 C-22.19583774 4.14553307 -19.94568638 2.8794135 -17.70410156 1.59838867 C-16.19082275 0.76247192 -16.19082275 0.76247192 -14.64697266 -0.09033203 C-13.76734863 -0.58662109 -12.88772461 -1.08291016 -11.98144531 -1.59423828 C-7.41572666 -3.21896452 -4.29614002 -1.95472184 0 0 Z M-15.21728516 3.98779297 C-16.25555702 4.53827805 -16.25555702 4.53827805 -17.31480408 5.09988403 C-19.58139449 6.30318466 -21.84468408 7.51255309 -24.10791016 8.72216797 C-25.6713407 9.55395045 -27.23489923 10.38549239 -28.79858398 11.21679688 C-38.11321512 16.17508523 -47.39399634 21.1925175 -56.64208984 26.27392578 C-63.00331599 29.76015796 -69.4182479 33.13332318 -75.85791016 36.47216797 C-84.23767187 40.81775148 -92.55253067 45.26636206 -100.82910156 49.80517578 C-108.44413252 53.98076251 -116.08428954 58.10856905 -123.73291016 62.22216797 C-124.88766846 62.84333496 -126.04242676 63.46450195 -127.23217773 64.10449219 C-129.94049505 65.56086898 -132.64905188 67.01679767 -135.35791016 68.47216797 C-135.35791016 68.80216797 -135.35791016 69.13216797 -135.35791016 69.47216797 C-105.65791016 69.47216797 -75.95791016 69.47216797 -45.35791016 69.47216797 C-44.69791016 65.18216797 -44.03791016 60.89216797 -43.35791016 56.47216797 C-38.84487143 46.23527525 -33.01802069 39.4720913 -22.92041016 34.47216797 C-13.17174292 30.81174885 -1.6267993 30.79668964 8.14208984 34.40966797 C18.63183682 39.61095525 25.84142555 47.35265689 29.64208984 58.47216797 C30.63208984 63.91716797 30.63208984 63.91716797 31.64208984 69.47216797 C61.34208984 69.47216797 91.04208984 69.47216797 121.64208984 69.47216797 C118.68626738 67.25530112 116.22168909 65.62768065 112.99365234 63.97607422 C112.08244629 63.5062915 111.17124023 63.03650879 110.23242188 62.55249023 C109.2538623 62.05160889 108.27530273 61.55072754 107.26708984 61.03466797 C99.37971726 56.96186366 91.54339073 52.81569028 83.76708984 48.53466797 C75.94757269 44.23611697 68.06983778 40.06756218 60.14208984 35.97216797 C51.30818151 31.40866049 42.5510086 26.7277458 33.83862305 21.93676758 C26.11431305 17.70058374 18.31717621 13.61254569 10.49121094 9.56762695 C5.40770469 6.93619181 0.38620946 4.23627272 -4.56958008 1.37036133 C-8.57583033 -0.64178811 -11.63936649 2.07017518 -15.21728516 3.98779297 Z " transform="translate(180.35791015625,101.52783203125)" style="fill: #0C294D;"/><path d="M0 0 C1.50626953 0.80824219 1.50626953 0.80824219 3.04296875 1.6328125 C3.75275879 2.00083984 4.46254883 2.36886719 5.19384766 2.74804688 C7.81394126 4.12654657 10.39678835 5.56226893 12.98046875 7.0078125 C20.78275348 11.32152548 28.62448034 15.5363199 36.54296875 19.6328125 C43.90180764 23.44743209 51.21488647 27.33092837 58.48046875 31.3203125 C67.50250416 36.27295678 76.57490347 41.12484849 85.66796875 45.9453125 C88.41540925 47.40225952 91.1628001 48.85930017 93.91015625 50.31640625 C94.59006119 50.67698624 95.26996613 51.03756622 95.97047424 51.40907288 C114.07056859 61.01140197 132.12089399 70.70134019 150.04296875 80.6328125 C150.04296875 80.9628125 150.04296875 81.2928125 150.04296875 81.6328125 C135.2560775 83.77641553 125.52152106 78.63303961 112.91894531 71.29980469 C108.57103216 68.77963907 104.14891681 66.40129468 99.73046875 64.0078125 C98.85817627 63.52924805 97.98588379 63.05068359 97.0871582 62.55761719 C88.45507799 57.82235655 79.7501833 53.22779508 71.04296875 48.6328125 C61.63654738 43.66807415 52.24249382 38.68784605 42.91796875 33.5703125 C41.22802253 32.64814799 39.53791355 31.7262817 37.84765625 30.8046875 C34.59578685 29.0313676 31.34842726 27.25029511 28.10644531 25.45898438 C24.4858207 23.45997384 20.8557015 21.47906276 17.22027588 19.5071106 C15.78031528 18.72222248 14.34351124 17.9315126 12.91009521 17.13473511 C10.89988433 16.01839316 8.87940012 14.92325061 6.85546875 13.83203125 C5.95684616 13.32370758 5.95684616 13.32370758 5.04006958 12.80511475 C0.92785153 10.62540454 -1.51656395 10.27488895 -5.95703125 11.6328125 C-8.44896084 12.76972014 -10.80955998 13.93913162 -13.20703125 15.24609375 C-13.8930542 15.61139694 -14.57907715 15.97670013 -15.28588867 16.35307312 C-17.51409369 17.5423057 -19.73553187 18.74360753 -21.95703125 19.9453125 C-23.51005371 20.77737051 -25.06344214 21.60874581 -26.6171875 22.43945312 C-35.59774003 27.24870113 -44.54872733 32.11271452 -53.47753906 37.01733398 C-62.57194602 42.00095375 -71.74632777 46.83213956 -80.91641235 51.67449951 C-89.57309358 56.24620618 -98.22211514 60.83040017 -106.83911133 65.4765625 C-109.01233424 66.64768551 -111.18789432 67.81448367 -113.3659668 68.9765625 C-117.73924478 71.3154744 -122.07437908 73.66412456 -126.29296875 76.2734375 C-135.68457552 81.97565482 -143.2546702 82.57598263 -153.95703125 81.6328125 C-149.32236142 77.47826703 -144.02474688 74.92748675 -138.51953125 72.1328125 C-130.60840887 68.06452157 -122.75030523 63.9226103 -114.95703125 59.6328125 C-107.504479 55.5378129 -100.00688366 51.54547723 -92.45703125 47.6328125 C-85.13961124 43.83913879 -77.86799361 39.97746299 -70.64453125 36.0078125 C-59.67610833 29.98085042 -48.61692783 24.12952978 -37.53686523 18.31103516 C-31.00436537 14.87495255 -24.50270633 11.41146961 -18.09765625 7.7421875 C-16.58365234 6.88173828 -16.58365234 6.88173828 -15.0390625 6.00390625 C-13.20869373 4.95617792 -11.38754684 3.89209598 -9.578125 2.80859375 C-3.82111281 -0.47448429 -3.82111281 -0.47448429 0 0 Z " transform="translate(174.95703125,89.3671875)" style="fill: #F6F7F8;"/><path d="M0 0 C101.31 0 202.62 0 307 0 C307 2.64 307 5.28 307 8 C205.69 8 104.38 8 0 8 C0 5.36 0 2.72 0 0 Z " transform="translate(20,174)" style="fill: #FBFBFC;"/><path d="M0 0 C5.37710819 3.17738211 8.40957342 8.43599693 11 14 C11.56381043 16.68142914 11.75566272 19.26342242 12 22 C12.99 22.66 13.98 23.32 15 24 C-4.47 24 -23.94 24 -44 24 C-43.01 23.67 -42.02 23.34 -41 23 C-41.103125 22.05125 -41.20625 21.1025 -41.3125 20.125 C-41.27480709 13.91823452 -38.19467639 8.45638466 -34.1328125 3.91015625 C-23.73534452 -5.65794171 -12.34107982 -6.41736151 0 0 Z " transform="translate(188,149)" style="fill: #022248;"/><path d="M0 0 C0.33 0 0.66 0 1 0 C1 6.93 1 13.86 1 21 C1.99 21 2.98 21 4 21 C4 21.66 4 22.32 4 23 C3.01 23 2.02 23 1 23 C0.81824219 23.59167969 0.63648438 24.18335937 0.44921875 24.79296875 C0.07216797 25.97826172 0.07216797 25.97826172 -0.3125 27.1875 C-0.55613281 27.96480469 -0.79976562 28.74210937 -1.05078125 29.54296875 C-2 32 -2 32 -3.53125 34.3984375 C-8.65332136 43.47104261 -8.47529992 59.09880032 -6 69 C-12.6 69 -19.2 69 -26 69 C-25.67 66.69 -25.34 64.38 -25 62 C-24.2224404 54.26300057 -26.1892288 49.0152971 -30.10351562 42.40625 C-32.47573951 38.38722747 -33.60552402 35.68271906 -33 31 C-31.4375 28.125 -31.4375 28.125 -29 26 C-25.25 25.6875 -25.25 25.6875 -22 26 C-22.33 25.443125 -22.66 24.88625 -23 24.3125 C-24.14011312 21.67598842 -24.2306312 19.84445144 -24 17 C-23 16 -23 16 -20.5625 15.8125 C-18 16 -18 16 -16 18 C-15.66666667 23.33333333 -15.66666667 23.33333333 -17 26 C-16.236875 25.938125 -15.47375 25.87625 -14.6875 25.8125 C-11.45613285 26.03794422 -11.18131991 26.81868009 -9 29 C-6.34305562 28.83394098 -5.23616321 28.21086001 -3.25 26.4375 C-2.8375 25.963125 -2.425 25.48875 -2 25 C-2.66 24.67 -3.32 24.34 -4 24 C-4 23.34 -4 22.68 -4 22 C-3.01 22 -2.02 22 -1 22 C-1.01160156 21.24976562 -1.02320313 20.49953125 -1.03515625 19.7265625 C-1.0937829 13.07662583 -0.81769308 6.59995127 0 0 Z " transform="translate(190,8)" style="fill: #F8F9FA;"/><path d="M0 0 C0 15.84 0 31.68 0 48 C1.65 48 3.3 48 5 48 C5 48.99 5 49.98 5 51 C3.3203125 52.38671875 3.3203125 52.38671875 1.125 53.6875 C0.40570313 54.12449219 -0.31359375 54.56148438 -1.0546875 55.01171875 C-3 56 -3 56 -5 56 C-5 55.01 -5 54.02 -5 53 C-5.55171875 53.31839844 -6.1034375 53.63679688 -6.671875 53.96484375 C-11.00788107 55.89276591 -15.37779983 55.84793465 -20 55 C-24.49481362 52.35812082 -28.10411358 48.91831404 -30 44 C-30.67062244 38.90794823 -30.79120451 33.72950208 -28.4375 29.0625 C-25.68968351 25.61011518 -23.20530656 23.31962361 -19 22 C-14.17209867 21.47927104 -9.67788347 21.67728812 -5 23 C-5.03300659 20.72854654 -5.10240005 18.45759874 -5.1875 16.1875 C-5.23970703 14.29064453 -5.23970703 14.29064453 -5.29296875 12.35546875 C-5.65620394 8.8234665 -5.65620394 8.8234665 -8.55078125 7.05078125 C-9.35902344 6.70402344 -10.16726562 6.35726562 -11 6 C-8.24029211 2.78034079 -4.3526723 0 0 0 Z " transform="translate(251,209)" style="fill: #F2F4F6;"/><path d="M0 0 C2.625 0.375 2.625 0.375 5 1 C5.75 3.125 5.75 3.125 6 6 C4.0625 9.3125 4.0625 9.3125 2 12 C3.32 12 4.64 12 6 12 C6.84384675 13.41042956 7.67469496 14.82864132 8.5 16.25 C8.9640625 17.03890625 9.428125 17.8278125 9.90625 18.640625 C11 21 11 21 11 25 C11.66 25 12.32 25 13 25 C13 27.31 13 29.62 13 32 C11.35 32 9.7 32 8 32 C7.97244336 34.12492345 7.95335853 36.24995705 7.9375 38.375 C7.92589844 39.55835938 7.91429687 40.74171875 7.90234375 41.9609375 C8.01580115 46.65353536 8.5329326 51.32932604 9 56 C1.74 56 -5.52 56 -13 56 C-12 50 -12 50 -11 48 C-10.86754678 45.39937131 -10.7901731 42.82100574 -10.75390625 40.21875 C-10.720979 38.63931714 -10.68776717 37.05989019 -10.65429688 35.48046875 C-10.60679428 32.98522871 -10.56234334 30.49001455 -10.52319336 27.99462891 C-10.48358134 25.58991855 -10.43202323 23.18569454 -10.37890625 20.78125 C-10.3704921 20.0322644 -10.36207794 19.28327881 -10.35340881 18.51159668 C-10.2266998 13.2266998 -10.2266998 13.2266998 -8 11 C-5.875 10.375 -5.875 10.375 -4 10 C-3.71125 8.72125 -3.4225 7.4425 -3.125 6.125 C-2.45897517 3.17546145 -2.19797403 2.19797403 0 0 Z " transform="translate(314,82)" style="fill: #F7F8F9;"/><path d="M0 0 C3 0.125 3 0.125 4 1.125 C4.04241723 3.45794775 4.04092937 5.79202567 4 8.125 C4 8.785 4 9.445 4 10.125 C4.61875 10.7025 5.2375 11.28 5.875 11.875 C10.19515642 16.44928326 10.24371665 21.66041845 10.1953125 27.7109375 C10.1924826 28.41272125 10.18965271 29.114505 10.18673706 29.83755493 C10.17562512 32.05855028 10.15053834 34.27912845 10.125 36.5 C10.11495854 38.01431705 10.10583473 39.52864049 10.09765625 41.04296875 C10.07742461 44.73726556 10.03826118 48.43067095 10 52.125 C3.4 52.125 -3.2 52.125 -10 52.125 C-9.875 43.375 -9.875 43.375 -9.81982422 40.63769531 C-9.8148291 39.91678711 -9.80983398 39.19587891 -9.8046875 38.453125 C-9.79421387 37.7199707 -9.78374023 36.98681641 -9.77294922 36.23144531 C-10.03345171 33.81465449 -10.86809015 32.25761548 -12 30.125 C-12.61687561 25.46271909 -13.09410501 20.40910768 -11.01953125 16.078125 C-8.73784549 13.24181409 -6.24289023 11.63557707 -3 10.125 C-3.08378906 9.48691406 -3.16757812 8.84882812 -3.25390625 8.19140625 C-3.35574219 7.36511719 -3.45757812 6.53882812 -3.5625 5.6875 C-3.66691406 4.86378906 -3.77132813 4.04007812 -3.87890625 3.19140625 C-3.91886719 2.50949219 -3.95882813 1.82757813 -4 1.125 C-3 0.125 -3 0.125 0 0 Z " transform="translate(35,84.875)" style="fill: #F8F9FA;"/><path d="M0 0 C2.42272354 1.10232688 4.71110393 2.23553815 7.0390625 3.5078125 C7.70895203 3.86504898 8.37884155 4.22228546 9.06903076 4.59034729 C11.25875663 5.76055147 13.44180375 6.94266547 15.625 8.125 C17.1579478 8.94715047 18.69131912 9.7685117 20.22509766 10.58911133 C23.33814653 12.25640082 26.4485608 13.92844639 29.55664062 15.60498047 C33.52778604 17.7469269 37.50451211 19.8782099 41.484375 22.00390625 C47.18618576 25.05083383 52.88336889 28.10627931 58.57910156 31.16455078 C62.09040668 33.04850681 65.60346022 34.92916101 69.1171875 36.80859375 C84.10361012 44.82581032 99.06484561 52.88766531 114 61 C114 61.99 114 62.98 114 64 C110.03013943 62.756333 106.40406929 61.30885961 102.71875 59.3828125 C101.72359375 58.86460937 100.7284375 58.34640625 99.703125 57.8125 C98.11757813 56.9771875 98.11757813 56.9771875 96.5 56.125 C95.39140625 55.54492188 94.2828125 54.96484375 93.140625 54.3671875 C85.15017554 50.17128938 77.22036382 45.87101041 69.3125 41.52197266 C62.42639275 37.74623892 55.47719855 34.10424345 48.5 30.5 C40.44865268 26.34022 32.44763976 22.1047373 24.5 17.75 C23.6028125 17.26128418 22.705625 16.77256836 21.78125 16.26904297 C17.51862564 13.94418884 13.27601817 11.59248462 9.0625 9.1796875 C7.54174352 8.32798777 6.02091437 7.47641776 4.5 6.625 C3.48583008 6.02510254 3.48583008 6.02510254 2.45117188 5.41308594 C-0.66732481 3.68887134 -2.34044658 2.83153995 -5.86279297 3.73120117 C-8.94266609 4.97681212 -11.80681767 6.36579801 -14.7265625 7.94921875 C-15.82581055 8.54202637 -16.92505859 9.13483398 -18.05761719 9.74560547 C-19.24675786 10.39287964 -20.43588508 11.04017852 -21.625 11.6875 C-22.87635101 12.36395592 -24.12798408 13.03989031 -25.37988281 13.71533203 C-27.97540284 15.11626953 -30.56970342 16.51942613 -33.16308594 17.92431641 C-39.01555295 21.09288581 -44.8828995 24.2336233 -50.75 27.375 C-51.89291504 27.98754639 -53.03583008 28.60009277 -54.21337891 29.23120117 C-63.13136579 34.00803162 -72.06381232 38.75732381 -81 43.5 C-90.95480689 48.78403378 -100.90656574 54.07365474 -110.84448242 59.3894043 C-112.05876555 60.0387699 -113.2732783 60.68770633 -114.48803711 61.33618164 C-116.16327846 62.2306597 -117.83752052 63.12700855 -119.51171875 64.0234375 C-120.45490967 64.52794434 -121.39810059 65.03245117 -122.36987305 65.55224609 C-124.17011322 66.54318866 -125.93597662 67.598511 -127.66723633 68.70556641 C-130 70 -130 70 -132.8125 69.6875 C-133.534375 69.460625 -134.25625 69.23375 -135 69 C-131.97811497 66.60782301 -128.87048998 64.75980689 -125.46875 62.953125 C-124.36273438 62.36337891 -123.25671875 61.77363281 -122.1171875 61.16601562 C-120.9114725 60.52731701 -119.70574293 59.8886459 -118.5 59.25 C-117.24199794 58.58043415 -115.98418871 57.91050591 -114.7265625 57.24023438 C-112.11402629 55.8482037 -109.50066768 54.45773531 -106.88671875 53.06835938 C-100.91667401 49.89348217 -94.95898803 46.69557063 -89 43.5 C-86.66672484 42.24989142 -84.33339131 40.99989178 -82 39.75 C-80.2675 38.821875 -80.2675 38.821875 -78.5 37.875 C-68 32.25 -68 32.25 -64.49633789 30.37304688 C-62.1752019 29.12957538 -59.85407552 27.88608595 -57.53295898 26.64257812 C-52.14435318 23.75573035 -46.75566252 20.86904163 -41.36660767 17.98303223 C-38.86586629 16.64379115 -36.3651822 15.30444311 -33.86450195 13.96508789 C-32.13433263 13.03847099 -30.40408213 12.11200565 -28.67382812 11.18554688 C-27.59681641 10.60869141 -26.51980469 10.03183594 -25.41015625 9.4375 C-24.35844238 8.87933594 -23.30672852 8.32117188 -22.22314453 7.74609375 C-19.95851098 6.51926 -17.72998775 5.27035947 -15.50732422 3.97265625 C-14.36924316 3.32167969 -13.23116211 2.67070313 -12.05859375 2 C-11.03950928 1.401875 -10.0204248 0.80375 -8.97045898 0.1875 C-5.33398965 -1.26625087 -3.73463187 -1.10618253 0 0 Z " transform="translate(177,100)" style="fill: #152F53;"/><path d="M0 0 C3.88446678 2.58964452 6.69907021 5.64814041 8.8125 9.875 C9.38709263 16.53806457 9.25179304 22.06378072 5.8125 27.875 C0.98298141 32.46304266 -3.14233455 33.28878271 -9.61328125 33.22265625 C-13.67872927 32.67360485 -16.42026903 30.84775475 -19.1875 27.875 C-23.30207178 22.25368362 -22.93248114 16.58829594 -22.1875 9.875 C-17.95199438 0.38746741 -9.76685983 -3.447127 0 0 Z " transform="translate(282.1875,231.125)" style="fill: #EEF0F2;"/><path d="M0 0 C0 -0.66 0 -1.32 0 -2 C0.99 -2 1.98 -2 3 -2 C3.3396019 -0.12612523 3.67138691 1.74916697 4 3.625 C4.185625 4.66914063 4.37125 5.71328125 4.5625 6.7890625 C4.98715797 9.90574865 5.07545206 12.85930812 5 16 C3.68 15.67 2.36 15.34 1 15 C0.79375 13.948125 0.5875 12.89625 0.375 11.8125 C-1.10126759 6.64032844 -4.76589983 4.2680028 -9.3125 1.6875 C-14.09076926 0.46515205 -18.58590486 -0.02854053 -23.21875 1.9453125 C-28.26675674 4.94021202 -31.700181 8.2703801 -34.25 13.625 C-36.13158914 22.09215113 -35.62704174 29.54866006 -31 37 C-27.45311059 41.18351058 -23.71236815 44.51131915 -18.203125 45.50390625 C-11.61200593 45.63468242 -7.16223816 44.89893929 -1.84765625 40.8671875 C1.09493863 37.89348696 2.4638101 34.87387019 4 31 C4.99 31 5.98 31 7 31 C6.11627907 41.6744186 6.11627907 41.6744186 4 45 C1.3125 46.125 1.3125 46.125 -2 47 C-2.969375 47.53625 -3.93875 48.0725 -4.9375 48.625 C-11.32742094 51.40632719 -19.98651904 51.18760059 -26.57421875 49.23828125 C-28.53101719 48.29529077 -30.23590449 47.26258207 -32 46 C-32.886875 45.443125 -33.77375 44.88625 -34.6875 44.3125 C-41.11946476 37.88053524 -43.3052644 30.66038865 -43.31469727 21.81445312 C-43.15845823 14.08570576 -40.86431284 9.82073893 -35.75 4.25 C-25.36385696 -5.3052516 -12.83361274 -4.96785009 0 0 Z " transform="translate(60,214)" style="fill: #F0F2F4;"/><path d="M0 0 C1.24007813 -0.00128906 2.48015625 -0.00257813 3.7578125 -0.00390625 C5.05460937 -0.00003906 6.35140625 0.00382813 7.6875 0.0078125 C9.63269531 0.00201172 9.63269531 0.00201172 11.6171875 -0.00390625 C12.85726562 -0.00261719 14.09734375 -0.00132812 15.375 0 C17.08236328 0.00169189 17.08236328 0.00169189 18.82421875 0.00341797 C21.6875 0.1328125 21.6875 0.1328125 24.6875 1.1328125 C24.6875 2.7828125 24.6875 4.4328125 24.6875 6.1328125 C23.6975 6.1328125 22.7075 6.1328125 21.6875 6.1328125 C21.6875 8.7728125 21.6875 11.4128125 21.6875 14.1328125 C17.96040256 16.09510266 14.23047112 18.05194462 10.5 20.0078125 C9.44490234 20.56339844 8.38980469 21.11898437 7.30273438 21.69140625 C5.77036133 22.49384766 5.77036133 22.49384766 4.20703125 23.3125 C2.80094604 24.05089111 2.80094604 24.05089111 1.36645508 24.80419922 C-1.13284405 26.04371311 -3.72225124 27.096713 -6.3125 28.1328125 C-6.3125 20.8728125 -6.3125 13.6128125 -6.3125 6.1328125 C-7.3025 6.1328125 -8.2925 6.1328125 -9.3125 6.1328125 C-9.3125 4.4828125 -9.3125 2.8328125 -9.3125 1.1328125 C-5.99253736 0.02615829 -3.49561401 0.00346394 0 0 Z " transform="translate(27.3125,139.8671875)" style="fill: #F7F8F9;"/><path d="M0 0 C1.19496094 -0.00128906 2.38992188 -0.00257813 3.62109375 -0.00390625 C4.87019531 -0.00003906 6.11929687 0.00382813 7.40625 0.0078125 C8.65535156 0.00394531 9.90445312 0.00007812 11.19140625 -0.00390625 C12.98384766 -0.00197266 12.98384766 -0.00197266 14.8125 0 C16.45702148 0.00169189 16.45702148 0.00169189 18.13476562 0.00341797 C20.90625 0.1328125 20.90625 0.1328125 23.90625 1.1328125 C23.90625 2.7828125 23.90625 4.4328125 23.90625 6.1328125 C22.91625 6.1328125 21.92625 6.1328125 20.90625 6.1328125 C20.90625 13.3928125 20.90625 20.6528125 20.90625 28.1328125 C15.93266914 25.84338639 10.97686762 23.54728857 6.04833984 21.16699219 C4.22024093 20.2844042 2.38610958 19.41432937 0.55078125 18.546875 C-1.96301961 17.23374958 -4.06145625 16.11149658 -6.09375 14.1328125 C-6.94365581 11.07759553 -6.64583234 9.33489004 -6.09375 6.1328125 C-7.08375 6.1328125 -8.07375 6.1328125 -9.09375 6.1328125 C-9.09375 4.4828125 -9.09375 2.8328125 -9.09375 1.1328125 C-5.83427722 0.04632157 -3.42864025 0.00352741 0 0 Z " transform="translate(304.09375,139.8671875)" style="fill: #FCFCFD;"/><path d="M0 0 C4.0226217 1.56435288 5.59149109 2.38723663 8 6 C8.31884766 8.36010742 8.31884766 8.36010742 8.4140625 11.10546875 C8.45273438 12.08837891 8.49140625 13.07128906 8.53125 14.08398438 C8.5621875 15.10814453 8.593125 16.13230469 8.625 17.1875 C8.66367188 18.22326172 8.70234375 19.25902344 8.7421875 20.32617188 C8.83648296 22.88393622 8.92208202 25.44169287 9 28 C10.65 27.67 12.3 27.34 14 27 C13.25 31.75 13.25 31.75 11 34 C8.98944339 33.73775349 6.98821313 33.39764263 5 33 C1.2236068 32.7018576 1.2236068 32.7018576 -1 34 C-4.05872727 34.41334152 -6.94622066 34.47189841 -10 34 C-13.35352755 31.30081929 -13.90377072 29.68563364 -14.5 25.4375 C-13.91883202 21.44197016 -13.18208807 20.38656605 -10 18 C-6.23882857 15.31344898 -2.4530504 15.85156499 2 16 C1.88590407 14.54077307 1.75834456 13.08259402 1.625 11.625 C1.55539063 10.81289062 1.48578125 10.00078125 1.4140625 9.1640625 C1.17107412 6.79665809 1.17107412 6.79665809 -1 5 C-3.41417872 4.41597867 -3.41417872 4.41597867 -6 5 C-8.33630748 7.39859044 -8.33630748 7.39859044 -10 10 C-11.32 9.67 -12.64 9.34 -14 9 C-13.72253508 5.67042093 -13.18903896 4.21195277 -10.9375 1.6875 C-7.21964369 -0.4482898 -4.14514716 -0.68139405 0 0 Z " transform="translate(104,230)" style="fill: #F0F1F4;"/><path d="M0 0 C3.00623731 0.81249657 5.61195267 1.74267056 8.21484375 3.46875 C16.93738138 9.16729539 24.96836746 8.59593857 35 8 C35.33 9.32 35.66 10.64 36 12 C-65.31 12 -166.62 12 -271 12 C-270.67 10.68 -270.34 9.36 -270 8 C-268.81921875 8.01160156 -267.6384375 8.02320313 -266.421875 8.03515625 C-264.86458492 8.04453752 -263.30729312 8.05363736 -261.75 8.0625 C-260.97269531 8.07087891 -260.19539063 8.07925781 -259.39453125 8.08789062 C-258.64042969 8.09111328 -257.88632812 8.09433594 -257.109375 8.09765625 C-256.41811523 8.10289307 -255.72685547 8.10812988 -255.01464844 8.11352539 C-252.90026102 7.99437971 -251.03358485 7.57618237 -249 7 C-249.33 7.99 -249.66 8.98 -250 10 C-193.57 10 -137.14 10 -79 10 C-79 9.67 -79 9.34 -79 9 C-49.96 8.67 -20.92 8.34 9 8 C5.7 6.35 2.4 4.7 -1 3 C-0.67 2.01 -0.34 1.02 0 0 Z " transform="translate(291,162)" style="fill: #264262;"/><path d="M0 0 C3.48278805 1.35441757 6.90463475 2.79532373 9 6 C9.08984375 8.39453125 9.08984375 8.39453125 8 11 C5.36495337 12.56407854 2.54154411 13.40941976 -0.375 14.3125 C-1.15617187 14.57611328 -1.93734375 14.83972656 -2.7421875 15.11132812 C-5.99329568 16.18296909 -8.55054096 17 -12 17 C-10.85201089 20.66138952 -9.76709186 24.02638341 -7.375 27.0625 C-3.54201333 28.57552105 0.05657826 27.98040872 4 27 C6.38028291 25.57324827 6.38028291 25.57324827 8 24 C8.66 24 9.32 24 10 24 C9.66466224 27.12981912 8.99933599 28.00061159 6.625 30.1875 C1.75132182 33.55265874 -3.24424254 33.78895118 -9 33 C-12.55762322 31.28761704 -14.59906977 28.56130232 -16.875 25.375 C-18.66808878 19.99573366 -19.13496346 14.31946303 -17.2734375 8.875 C-13.20576602 1.20264403 -8.33828867 -1.23530203 0 0 Z " transform="translate(168,231)" style="fill: #EDEFF2;"/><path d="M0 0 C3 1 3 1 4 3 C4.99 2.34 5.98 1.68 7 1 C10.71819916 0.45320601 14.28193784 0.4509879 18 1 C20.89683868 3.2015974 22.39297231 4.78594462 24 8 C24.08426094 9.6674606 24.10725143 11.33825187 24.09765625 13.0078125 C24.09443359 13.99394531 24.09121094 14.98007813 24.08789062 15.99609375 C24.07532227 17.54490234 24.07532227 17.54490234 24.0625 19.125 C24.05798828 20.16527344 24.05347656 21.20554688 24.04882812 22.27734375 C24.03701952 24.85161962 24.02055075 27.42578146 24 30 C25.32 30 26.64 30 28 30 C28 30.99 28 31.98 28 33 C23.38 33 18.76 33 14 33 C14 32.01 14 31.02 14 30 C15.32 29.67 16.64 29.34 18 29 C18.13530844 25.93601549 18.2342407 22.87802874 18.3125 19.8125 C18.35439453 18.94818359 18.39628906 18.08386719 18.43945312 17.19335938 C18.52627029 12.66150342 18.46986617 10.63985188 15.7109375 6.8828125 C13.04517231 4.64004415 13.04517231 4.64004415 9.3125 5.0625 C5.95212718 5.72265858 5.95212718 5.72265858 4 8 C3.72258755 10.23035297 3.72258755 10.23035297 3.8046875 12.7890625 C3.81113281 13.73007813 3.81757813 14.67109375 3.82421875 15.640625 C3.84097656 16.62546875 3.85773438 17.6103125 3.875 18.625 C3.88853516 20.11386719 3.88853516 20.11386719 3.90234375 21.6328125 C3.92595884 24.08878134 3.95889201 26.54427168 4 29 C5.32 29.33 6.64 29.66 8 30 C8 30.99 8 31.98 8 33 C3.05 33 -1.9 33 -7 33 C-7 32.01 -7 31.02 -7 30 C-5.68 29.67 -4.36 29.34 -3 29 C-3.1100917 25.58268208 -3.24067061 22.16644426 -3.375 18.75 C-3.4059375 17.78191406 -3.436875 16.81382812 -3.46875 15.81640625 C-3.50742188 14.88183594 -3.54609375 13.94726562 -3.5859375 12.984375 C-3.6173584 12.12553711 -3.6487793 11.26669922 -3.68115234 10.38183594 C-4.01716204 7.8717972 -4.74191728 6.18067672 -6 4 C-3.1875 1.9375 -3.1875 1.9375 0 0 Z " transform="translate(189,230)" style="fill: #E5E8EC;"/><path d="M0 0 C0.33 0.99 0.66 1.98 1 3 C1.680625 2.505 2.36125 2.01 3.0625 1.5 C6.71831169 -0.36679746 8.93308428 -0.42809639 13 0 C18.37895045 2.02979262 18.37895045 2.02979262 20.14208984 4.78417969 C21.13892472 7.35881639 21.31788306 9.44598105 21.4140625 12.203125 C21.45273437 13.1828125 21.49140625 14.1625 21.53125 15.171875 C21.5621875 16.18765625 21.593125 17.2034375 21.625 18.25 C21.66367187 19.28125 21.70234375 20.3125 21.7421875 21.375 C21.83631674 23.9164894 21.92194979 26.45797433 22 29 C23.32 29.33 24.64 29.66 26 30 C26 30.99 26 31.98 26 33 C21.05 33 16.1 33 11 33 C11 32.01 11 31.02 11 30 C12.65 30 14.3 30 16 30 C15.94807797 26.58209801 15.85299401 23.16671438 15.75 19.75 C15.73582031 18.78191406 15.72164063 17.81382812 15.70703125 16.81640625 C15.58501794 11.23177234 15.58501794 11.23177234 13.140625 6.35546875 C10.20753543 4.49820218 8.41031053 4.50266305 5 5 C2.76343825 6.14351243 2.76343825 6.14351243 1 8 C0.45086421 10.31090728 0.45086421 10.31090728 0.609375 12.88671875 C0.62226563 13.82451172 0.63515625 14.76230469 0.6484375 15.72851562 C0.69871094 17.19321289 0.69871094 17.19321289 0.75 18.6875 C0.77707031 20.16959961 0.77707031 20.16959961 0.8046875 21.68164062 C0.85184553 24.12206842 0.91763958 26.56054769 1 29 C2.65 29.33 4.3 29.66 6 30 C6 30.99 6 31.98 6 33 C0.72 33 -4.56 33 -10 33 C-10 32.01 -10 31.02 -10 30 C-8.68 29.67 -7.36 29.34 -6 29 C-5.91275294 25.5834948 -5.85952675 22.16727687 -5.8125 18.75 C-5.78736328 17.78191406 -5.76222656 16.81382812 -5.73632812 15.81640625 C-5.72666016 14.88183594 -5.71699219 13.94726562 -5.70703125 12.984375 C-5.6913208 12.12553711 -5.67561035 11.26669922 -5.65942383 10.38183594 C-6.06904051 7.51716184 -7.113864 6.14936836 -9 4 C-3.375 0 -3.375 0 0 0 Z " transform="translate(305,230)" style="fill: #EFF1F3;"/><path d="M0 0 C2.67729734 2.48409031 2.66440803 3.15084079 2.90234375 6.671875 C2.90633047 8.48450578 2.88315211 10.29735485 2.8359375 12.109375 C2.84689453 13.02460938 2.85785156 13.93984375 2.86914062 14.8828125 C2.81336579 19.95460397 2.81336579 19.95460397 2.2734375 22.109375 C-0.29928118 24.58810837 -1.48998623 25.07870771 -5.1015625 25.546875 C-9.44698182 25.02242784 -11.42489545 23.96081473 -14.7265625 21.109375 C-17.60805422 16.97923686 -18.30638581 13.23467508 -18.15625 8.296875 C-17.41395989 4.51794351 -15.48329558 2.73483508 -12.7265625 0.109375 C-8.62610179 -1.94085535 -4.20682641 -1.3741496 0 0 Z " transform="translate(243.7265625,234.890625)" style="fill: #07264B;"/><path d="M0 0 C4.44033904 0.50267989 6.19372888 2.25622888 9.3125 5.375 C11.99917282 8.91652326 11.84768533 13.10175101 11.3125 17.375 C9.77285204 21.45506708 8.28338264 24.38955868 4.3125 26.375 C0.875 26.875 0.875 26.875 -2.6875 26.375 C-6.31904714 23.37502627 -8.50863663 21.24795495 -8.9609375 16.51171875 C-9.23082501 7.34592375 -9.23082501 7.34592375 -7.60546875 4.44140625 C-6.25 3.125 -6.25 3.125 -3.6875 1.375 C-2.6875 0.375 -2.6875 0.375 0 0 Z " transform="translate(274.6875,233.625)" style="fill: #052449;"/><path d="M0 0 C1.24007812 -0.00128906 2.48015625 -0.00257812 3.7578125 -0.00390625 C5.05460938 -0.00003906 6.35140625 0.00382812 7.6875 0.0078125 C9.63269531 0.00201172 9.63269531 0.00201172 11.6171875 -0.00390625 C12.85726562 -0.00261719 14.09734375 -0.00132813 15.375 0 C17.08236328 0.00169189 17.08236328 0.00169189 18.82421875 0.00341797 C21.6875 0.1328125 21.6875 0.1328125 24.6875 1.1328125 C24.6875 2.7828125 24.6875 4.4328125 24.6875 6.1328125 C23.6975 6.1328125 22.7075 6.1328125 21.6875 6.1328125 C21.6875 9.4328125 21.6875 12.7328125 21.6875 16.1328125 C20.81867188 15.68808594 19.94984375 15.24335937 19.0546875 14.78515625 C17.90226562 14.21925781 16.74984375 13.65335938 15.5625 13.0703125 C14.42554688 12.50183594 13.28859375 11.93335937 12.1171875 11.34765625 C7.68444449 9.77751607 4.85497029 10.10285048 0.640625 12.10546875 C0.07859375 12.46511719 -0.4834375 12.82476562 -1.0625 13.1953125 C-4.3125 15.1328125 -4.3125 15.1328125 -6.3125 15.1328125 C-6.3125 12.1628125 -6.3125 9.1928125 -6.3125 6.1328125 C-7.3025 6.1328125 -8.2925 6.1328125 -9.3125 6.1328125 C-9.3125 4.4828125 -9.3125 2.8328125 -9.3125 1.1328125 C-5.99253736 0.02615829 -3.49561401 0.00346394 0 0 Z " transform="translate(166.3125,78.8671875)" style="fill: #F3F5F6;"/><path d="M0 0 C0.33 16.5 0.66 33 1 50 C2.32 50.33 3.64 50.66 5 51 C5 51.99 5 52.98 5 54 C0.05 54 -4.9 54 -10 54 C-9.67 52.68 -9.34 51.36 -9 50 C-7.515 49.505 -7.515 49.505 -6 49 C-5.67 35.8 -5.34 22.6 -5 9 C-7.475 8.01 -7.475 8.01 -10 7 C-10.33 6.01 -10.66 5.02 -11 4 C-9.73308493 3.32591692 -8.46129251 2.66099503 -7.1875 2 C-6.47980469 1.62875 -5.77210937 1.2575 -5.04296875 0.875 C-3 0 -3 0 0 0 Z " transform="translate(80,209)" style="fill: #F4F5F7;"/><path d="M0 0 C0.33 1.32 0.66 2.64 1 4 C-0.5 5.5625 -0.5 5.5625 -3 7 C-5.72254934 6.9178305 -8.30064228 6.42846948 -11 6 C-11.99 6.33 -12.98 6.66 -14 7 C-14 14.26 -14 21.52 -14 29 C-11.69 29.33 -9.38 29.66 -7 30 C-7 30.99 -7 31.98 -7 33 C-12.61 33 -18.22 33 -24 33 C-24 32.01 -24 31.02 -24 30 C-23.01 29.67 -22.02 29.34 -21 29 C-20.91318524 25.37515001 -20.85967279 21.75056557 -20.8125 18.125 C-20.78736328 17.09246094 -20.76222656 16.05992187 -20.73632812 14.99609375 C-20.72666016 14.00996094 -20.71699219 13.02382812 -20.70703125 12.0078125 C-20.6913208 11.09660645 -20.67561035 10.18540039 -20.65942383 9.24658203 C-20.77181396 8.50520996 -20.8842041 7.76383789 -21 7 C-21.99 6.34 -22.98 5.68 -24 5 C-23 2 -23 2 -20.625 0.8125 C-18 0 -18 0 -15 0 C-15 1.32 -15 2.64 -15 4 C-14.50371094 3.62746094 -14.00742188 3.25492188 -13.49609375 2.87109375 C-8.49279975 -0.61317361 -5.93057908 -1.6061985 0 0 Z " transform="translate(146,230)" style="fill: #E8EBEE;"/><path d="M0 0 C7.84374364 4.01114053 12.79987918 9.94128728 15.57421875 18.31640625 C15.92551418 21.14045653 15.83857652 23.46134236 15.57421875 26.31640625 C14.58421875 26.31640625 13.59421875 26.31640625 12.57421875 26.31640625 C12.49945313 25.69894531 12.4246875 25.08148438 12.34765625 24.4453125 C11.2990264 17.69090259 9.39672036 12.29605659 4.57421875 7.31640625 C-3.03156139 2.36022914 -10.38851032 0.28729294 -19.42578125 1.31640625 C-26.32982193 3.51583635 -31.49135905 7.23238251 -35.42578125 13.31640625 C-37.621548 17.63222365 -38.84027314 21.51523977 -39.42578125 26.31640625 C-40.41578125 26.31640625 -41.40578125 26.31640625 -42.42578125 26.31640625 C-41.99021998 16.90828276 -39.25819547 10.36403002 -32.36328125 3.85546875 C-22.66934027 -3.84496017 -11.29967615 -4.62625828 0 0 Z " transform="translate(186.42578125,144.68359375)" style="fill: #EBEEF1;"/><path d="M0 0 C4.47382816 -0.06015231 6.3818366 -0.0299067 10.01171875 2.84375 C12.7397456 6.42428525 13.13482236 8.04872114 13.109375 12.4765625 C13.10615234 13.46269531 13.10292969 14.44882813 13.09960938 15.46484375 C13.09123047 16.49738281 13.08285156 17.52992188 13.07421875 18.59375 C13.06970703 19.63402344 13.06519531 20.67429688 13.06054688 21.74609375 C13.04873827 24.32036962 13.0322695 26.89453146 13.01171875 29.46875 C14.33171875 29.46875 15.65171875 29.46875 17.01171875 29.46875 C17.01171875 30.45875 17.01171875 31.44875 17.01171875 32.46875 C12.39171875 32.46875 7.77171875 32.46875 3.01171875 32.46875 C3.01171875 31.47875 3.01171875 30.48875 3.01171875 29.46875 C4.33171875 29.13875 5.65171875 28.80875 7.01171875 28.46875 C7.14702719 25.40476549 7.24595945 22.34677874 7.32421875 19.28125 C7.36611328 18.41693359 7.40800781 17.55261719 7.45117188 16.66210938 C7.53797428 12.1310236 7.5091039 10.12744926 4.69921875 6.40625 C1.70848848 4.25014213 -0.34136757 3.72318584 -3.98828125 3.46875 C-1.98828125 0.46875 -1.98828125 0.46875 0 0 Z " transform="translate(199.98828125,230.53125)" style="fill: #EFF1F3;"/><path d="M0 0 C-0.33 0.99 -0.66 1.98 -1 3 C29.69 3.33 60.38 3.66 92 4 C92 4.33 92 4.66 92 5 C54.38 5 16.76 5 -22 5 C-21.67 3.68 -21.34 2.36 -21 1 C-19.79601562 1.01160156 -18.59203125 1.02320313 -17.3515625 1.03515625 C-15.77604321 1.04453434 -14.20052225 1.05363452 -12.625 1.0625 C-11.43390625 1.07506836 -11.43390625 1.07506836 -10.21875 1.08789062 C-6.58976612 1.10326768 -3.39610464 0 0 0 Z " transform="translate(42,169)" style="fill: #153356;"/><path d="M0 0 C0.621881 8.23992322 0.621881 8.23992322 -1.6875 11.0625 C-4.36302119 12.14717075 -6.13976624 12.37634655 -9 12 C-11 10 -11 10 -11.5 7.125 C-11 4 -11 4 -8.3125 1.625 C-5.10671025 0.05234842 -3.48477467 -0.40997349 0 0 Z " transform="translate(107,248)" style="fill: #132E52;"/><path d="M0 0 C6.64744427 0.63308993 10.77128742 3.46011828 15.1875 8.3125 C20.03018242 14.28641269 21.39619364 19.47232087 21 27 C20.01 27 19.02 27 18 27 C17.92523438 26.38253906 17.85046875 25.76507813 17.7734375 25.12890625 C16.7260311 18.38237679 14.82915693 12.96601563 10 8 C6.79770818 5.95435686 3.53255767 4.38928651 0 3 C0 2.01 0 1.02 0 0 Z " transform="translate(181,144)" style="fill: #E2E6EA;"/><path d="M0 0 C0.99 0.33 1.98 0.66 3 1 C2.67 1.66 2.34 2.32 2 3 C32.03 3 62.06 3 93 3 C93 3.33 93 3.66 93 4 C61.32 4 29.64 4 -3 4 C-2.01 2.68 -1.02 1.36 0 0 Z " transform="translate(42,169)" style="fill: #001139;"/><path d="M0 0 C3.60396306 0.44259196 4.99265709 0.97045081 7.5625 3.4375 C7.2325 4.4275 6.9025 5.4175 6.5625 6.4375 C4.12890625 7.60546875 4.12890625 7.60546875 1.125 8.625 C0.13628906 8.96917969 -0.85242188 9.31335938 -1.87109375 9.66796875 C-4.4375 10.4375 -4.4375 10.4375 -6.4375 10.4375 C-6.65441118 7.25613606 -6.68816255 4.99780453 -5.375 2.0625 C-3.4375 0.4375 -3.4375 0.4375 0 0 Z " transform="translate(162.4375,234.5625)" style="fill: #0B274C;"/><path d="M0 0 C0.33 0 0.66 0 1 0 C0.85884766 1.7634375 0.85884766 1.7634375 0.71484375 3.5625 C0.88846602 5.84219784 0.88846602 5.84219784 2 8 C5.85779235 10.98747937 10.1556377 12.94170504 14.5625 15 C15.76371951 15.58709016 16.96360994 16.17690805 18.16210938 16.76953125 C21.09505903 18.20655879 24.04595093 19.60686112 27 21 C27.33 14.07 27.66 7.14 28 0 C28.33 0 28.66 0 29 0 C29.33 7.59 29.66 15.18 30 23 C25.40107952 24.14973012 24.93228169 23.80245519 21.0078125 21.578125 C19.57888672 20.78148437 19.57888672 20.78148437 18.12109375 19.96875 C16.63802734 19.11796875 16.63802734 19.11796875 15.125 18.25 C13.16968886 17.15029807 11.21397087 16.05131917 9.2578125 14.953125 C7.88931152 14.1787207 7.88931152 14.1787207 6.49316406 13.38867188 C3.70014513 11.83298331 0.88005157 10.38632991 -2 9 C-1.34 8.67 -0.68 8.34 0 8 C0 5.36 0 2.72 0 0 Z " transform="translate(297,146)" style="fill: #334968;"/><path d="M0 0 C3.00623731 0.81249657 5.61195267 1.74267056 8.21484375 3.46875 C16.93738138 9.16729539 24.96836746 8.59593857 35 8 C35 8.66 35 9.32 35 10 C27.41 10.33 19.82 10.66 12 11 C12 10.01 12 9.02 12 8 C11.34 7.9175 10.68 7.835 10 7.75 C6.00960837 6.75240209 2.61450357 4.92833317 -1 3 C-0.67 2.01 -0.34 1.02 0 0 Z " transform="translate(291,162)" style="fill: #243D5E;"/><path d="M0 0 C5.00113594 1.48008696 9.32915597 3.6318336 13.875 6.125 C14.56335938 6.49753906 15.25171875 6.87007812 15.9609375 7.25390625 C17.64294798 8.16499526 19.32180436 9.08190315 21 10 C21 10.99 21 11.98 21 13 C15.99886406 11.51991304 11.67084403 9.3681664 7.125 6.875 C6.43664062 6.50246094 5.74828125 6.12992188 5.0390625 5.74609375 C3.35705202 4.83500474 1.67819564 3.91809685 0 3 C0 2.01 0 1.02 0 0 Z " transform="translate(270,151)" style="fill: #1A3457;"/><path d="M0 0 C-0.33 0.99 -0.66 1.98 -1 3 C-0.01 3.66 0.98 4.32 2 5 C-5.92 5 -13.84 5 -22 5 C-21.67 3.68 -21.34 2.36 -21 1 C-19.79601562 1.01160156 -18.59203125 1.02320313 -17.3515625 1.03515625 C-15.77604321 1.04453434 -14.20052225 1.05363452 -12.625 1.0625 C-11.43390625 1.07506836 -11.43390625 1.07506836 -10.21875 1.08789062 C-6.58976612 1.10326768 -3.39610464 0 0 0 Z " transform="translate(42,169)" style="fill: #284363;"/><path d="M0 0 C3.40312738 1.05875074 6.01353231 2.00902154 9 4 C8.67 4.99 8.34 5.98 8 7 C3.545 5.02 3.545 5.02 -1 3 C-0.67 2.01 -0.34 1.02 0 0 Z " transform="translate(291,162)" style="fill: #1C3558;"/><path d="M0 0 C2.97 1.32 5.94 2.64 9 4 C8.01 4.495 8.01 4.495 7 5 C6.67 5.66 6.34 6.32 6 7 C3.36 5.68 0.72 4.36 -2 3 C-1.34 2.67 -0.68 2.34 0 2 C0 1.34 0 0.68 0 0 Z " transform="translate(200,113)" style="fill: #1C3557;"/><path d="M0 0 C6.4 -0.36923077 6.4 -0.36923077 9.4375 1.5 C9.953125 1.995 10.46875 2.49 11 3 C10.01 3.66 9.02 4.32 8 5 C5.36 3.68 2.72 2.36 0 1 C0 0.67 0 0.34 0 0 Z " transform="translate(260,148)" style="fill: #1F385A;"/><path d="M0 0 C3.91211733 1.15585285 6.8745041 2.35534962 10 5 C5.32538149 5.32613618 2.83325617 4.70582788 -1 2 C-0.67 1.34 -0.34 0.68 0 0 Z " transform="translate(255,143)" style="fill: #0C264B;"/><path d="M0 0 C3.91211733 1.15585285 6.8745041 2.35534962 10 5 C5.32538149 5.32613618 2.83325617 4.70582788 -1 2 C-0.67 1.34 -0.34 0.68 0 0 Z " transform="translate(240,135)" style="fill: #0C254A;"/><path d="M0 0 C2.875 0.25 2.875 0.25 6 1 C7.375 3.0625 7.375 3.0625 8 5 C4.62537285 4.45276317 2.91765 3.9451 0 2 C0 1.34 0 0.68 0 0 Z " transform="translate(207,118)" style="fill: #10294E;"/><path d="M0 0 C0.66 0 1.32 0 2 0 C0.55746343 3.36591866 -1.33264727 5.51047079 -4 8 C-4.66 7.67 -5.32 7.34 -6 7 C-5.04882866 5.8274869 -4.08882991 4.66212985 -3.125 3.5 C-2.59132812 2.8503125 -2.05765625 2.200625 -1.5078125 1.53125 C-0.76144531 0.77328125 -0.76144531 0.77328125 0 0 Z " transform="translate(157,150)" style="fill: #132C50;"/><path d="M0 0 C1.98 0.66 3.96 1.32 6 2 C6 2.99 6 3.98 6 5 C4.02 4.34 2.04 3.68 0 3 C0 2.01 0 1.02 0 0 Z " transform="translate(285,159)" style="fill: #0B254A;"/><path d="M0 0 C3.55780196 0.60990891 6.6828589 1.5783681 10 3 C8.02 3.99 8.02 3.99 6 5 C3.98079663 3.69593116 1.98075027 2.36176581 0 1 C0 0.67 0 0.34 0 0 Z " transform="translate(317,165)" style="fill: #1B3053;"/><path d="M0 0 C0.33 0.99 0.66 1.98 1 3 C-1.05233685 5.2477975 -2.00667261 6.0022242 -5 7 C-3.75023244 3.34683329 -3.32901247 2.21934164 0 0 Z " transform="translate(151,154)" style="fill: #E3E6EA;"/><path d="M0 0 C2.4375 0.8125 2.4375 0.8125 5 2 C5.33 2.99 5.66 3.98 6 5 C4.02 4.34 2.04 3.68 0 3 C0 2.01 0 1.02 0 0 Z " transform="translate(270,151)" style="fill: #092348;"/></svg>